<svg
  width="75"
  height="55"
  viewBox="0 0 65 43"
  fill="none"
  xmlns="http://www.w3.org/2000/svg"
>
<path
    d="M49.5922 37.5462C48.4185 40.2774 45.7314 42.0474 42.7588 42.0474H14.4473C9.06431 42.0474 5.4641 36.5062 7.65133 31.5877L18.4005 7.4155C19.5946 4.73033 22.2577 3 25.1964 3H53.1462C58.4889 3 62.0889 8.46542 59.9796 13.3741L49.5922 37.5462Z"
    fill="orange"
  />
<path
    d="M36.5789 4.70389C36.5656 4.63978 36.5343 4.58079 36.4886 4.53387C36.4429 4.48695 36.3848 4.45405 36.3211 4.43905C32.0726 3.39999 22.2586 7.10233 16.9359 12.4211C15.9873 13.3619 15.1223 14.3835 14.3507 15.4742C12.7101 15.3258 11.0695 15.4508 9.67262 16.0601C5.72809 17.7945 4.58043 22.3242 4.26012 24.2687C4.24277 24.3753 4.25018 24.4844 4.28179 24.5876C4.31339 24.6908 4.36834 24.7854 4.44238 24.864C4.51641 24.9425 4.60754 25.003 4.70871 25.0407C4.80987 25.0784 4.91836 25.0922 5.02575 25.0812L11.3593 24.3859C11.3637 24.8636 11.3924 25.3408 11.4453 25.8156C11.4783 26.1438 11.6248 26.4502 11.8593 26.682L14.3117 29.1344C14.5437 29.3691 14.8504 29.5155 15.1789 29.5484C15.6508 29.6011 16.1251 29.6297 16.6 29.6344L15.9054 35.9625C15.8946 36.0697 15.9086 36.178 15.9462 36.279C15.9839 36.38 16.0443 36.471 16.1228 36.5449C16.2013 36.6189 16.2957 36.6738 16.3987 36.7054C16.5018 36.737 16.6107 36.7445 16.7172 36.7273C18.6625 36.4148 23.2015 35.2672 24.9257 31.3234C25.5351 29.925 25.6601 28.293 25.5195 26.6601C26.6135 25.8893 27.6379 25.0243 28.5812 24.075C33.9234 18.7625 37.6023 9.16405 36.5789 4.70389ZM23.8328 17.193C23.3662 16.7264 23.0484 16.132 22.9196 15.4849C22.7908 14.8378 22.8568 14.167 23.1093 13.5574C23.3618 12.9478 23.7893 12.4267 24.3379 12.0601C24.8866 11.6935 25.5316 11.4979 26.1914 11.4979C26.8512 11.4979 27.4962 11.6935 28.0448 12.0601C28.5934 12.4267 29.021 12.9478 29.2735 13.5574C29.5259 14.167 29.5919 14.8378 29.4632 15.4849C29.3344 16.132 29.0166 16.7264 28.55 17.193C28.2405 17.5031 27.8728 17.7492 27.4681 17.9171C27.0634 18.085 26.6295 18.1714 26.1914 18.1714C25.7532 18.1714 25.3194 18.085 24.9146 17.9171C24.5099 17.7492 24.1423 17.5031 23.8328 17.193V17.193Z"
    stroke="#04034A"
    stroke-width="2.5"
    stroke-linecap="round"
    stroke-linejoin="round"
  />
<path
    d="M9.06562 28C8.28681 28.0956 7.56226 28.4487 7.00703 29.0031C5.63047 30.3844 5.5 35.5 5.5 35.5C5.5 35.5 10.6187 35.3695 11.9961 33.9914C12.5528 33.4371 12.9065 32.7113 13 31.9313"
    stroke="#04034A"
    stroke-width="2.5"
    stroke-linecap="round"
    stroke-linejoin="round"
  />
</svg>
