<svg
  width="75"
  height="55"
  viewBox="0 0 65 43"
  fill="none"
  xmlns="http://www.w3.org/2000/svg"
>
<path
    d="M49.5922 37.5462C48.4185 40.2774 45.7314 42.0474 42.7588 42.0474H14.4473C9.06431 42.0474 5.4641 36.5062 7.65133 31.5877L18.4005 7.4155C19.5946 4.73033 22.2577 3 25.1964 3H53.1462C58.4889 3 62.0889 8.46542 59.9796 13.3741L49.5922 37.5462Z"
    fill="orange"
  />
<path
    d="M26.75 14.25L18.0937 24.25L14.25 20.4844"
    stroke="#04034A"
    stroke-width="2.5"
    stroke-linecap="round"
    stroke-linejoin="round"
  />
<path
    d="M36.6796 9.27891C29.6937 8.02578 26.8054 7.09766 20.4999 4.25C14.1945 7.09766 11.3062 8.02578 4.32024 9.27891C3.05462 29.3383 19.2952 36.2648 20.4999 36.75C21.7046 36.2648 37.9452 29.3383 36.6796 9.27891Z"
    stroke="#04034A"
    stroke-width="2.5"
    stroke-linecap="round"
    stroke-linejoin="round"
  />
</svg>
