<svg
  width="75"
  height="55"
  viewBox="0 0 65 43"
  fill="none"
  xmlns="http://www.w3.org/2000/svg"
>
<path
    d="M49.5922 37.5462C48.4185 40.2774 45.7314 42.0474 42.7588 42.0474H14.4473C9.06431 42.0474 5.4641 36.5062 7.65133 31.5877L18.4005 7.4155C19.5946 4.73033 22.2577 3 25.1964 3H53.1462C58.4889 3 62.0889 8.46542 59.9796 13.3741L49.5922 37.5462Z"
    fill="orange"
  />
<path
    d="M5.26396 29.7187C6.50458 28.4687 9.50927 26.6445 10.9671 25.9093C12.8655 24.9531 13.0218 24.8749 14.514 25.9835C15.5093 26.7234 16.171 27.3843 17.3358 27.1359C18.5007 26.8874 21.0319 25.4867 23.2483 23.2773C25.4647 21.0679 26.9468 18.4632 27.196 17.3023C27.4452 16.1413 26.7733 15.4874 26.0405 14.4898C25.0077 13.0835 25.0858 12.8492 25.9686 10.9507C26.6569 9.47416 28.5343 6.4976 29.789 5.26322C31.1311 3.93744 31.1311 4.17182 31.996 4.53119C32.7001 4.82743 33.3756 5.18753 34.014 5.60697C35.264 6.43744 35.9577 7.12728 36.4429 8.164C36.928 9.20072 37.146 11.6312 34.6405 16.1828C32.1351 20.7343 30.3772 23.0617 26.739 26.6898C23.1007 30.3179 20.303 32.2687 16.2132 34.5624C11.1538 37.396 9.21318 36.8437 8.17333 36.3593C7.13349 35.8749 6.44052 35.1874 5.60849 33.9374C5.18796 33.3001 4.82706 32.6254 4.53036 31.9218C4.17021 31.0601 3.93583 31.0601 5.26396 29.7187Z"
    stroke="#04034A"
    stroke-width="2.5"
    stroke-miterlimit="10"
  />
</svg>
