<svg
  width="116"
  height="34"
  viewBox="0 0 116 34"
  fill="none"
  xmlns="http://www.w3.org/2000/svg"
>
<path
    d="M14.4087 12.7615C14.2795 12.7615 14.1502 12.7615 14.0468 12.7873C13.0389 12.9165 12.186 13.4852 11.7207 14.3639C11.514 14.3122 11.3072 14.2605 11.0746 14.183C10.1442 13.9504 9.36879 13.8211 8.72265 13.7695H8.33497C7.63713 13.7695 6.88761 13.8987 6.13809 14.1571C5.54364 14.3639 5.02673 14.5707 4.58735 14.7516C3.9929 15.01 3.45014 15.3202 2.98492 15.682C2.31294 16.1989 1.82187 16.9485 1.40834 17.9564C1.17573 18.5509 0.968966 19.0678 0.762201 19.5589C0.4779 20.2567 0.29698 21.0838 0.193598 21.9625C0.116061 22.6603 0.0643699 23.3065 0.0385243 23.9009C-0.0131669 24.5471 -0.0131669 25.2191 0.0385243 25.8652C0.0902155 26.8732 0.374517 27.7519 0.891429 28.5273L1.69264 29.7162C2.13202 30.3882 2.804 31.0085 3.65691 31.5771C4.56151 32.1715 5.33687 32.5334 6.11224 32.6626C6.52577 32.7401 7.09438 32.8177 7.79221 32.9211C8.43835 33.0244 8.98111 33.0503 9.47217 33.0503C9.65309 33.0503 9.83401 33.0503 10.0149 33.0244C10.7903 32.9727 11.5657 32.7143 12.3669 32.3008C12.522 32.2232 12.6512 32.1457 12.8063 32.0423C13.349 32.7143 14.1761 33.0761 15.029 33.0761C16.0886 33.0761 17.4585 32.43 17.8203 30.595C17.9237 30.0522 17.9495 29.3027 17.9237 28.0879C17.8978 27.1575 17.8462 25.3483 17.8203 22.7379C17.7945 20.0499 17.7428 18.2149 17.6652 17.2328C17.5618 15.9405 17.4326 15.1651 17.1742 14.5707C16.6573 13.4593 15.5976 12.7615 14.4087 12.7615ZM8.02482 20.205H9.13618C9.42048 20.205 9.75647 20.2309 10.0666 20.2825C10.3768 20.5669 10.5318 20.7478 10.5835 20.7995C10.6094 20.8512 10.7645 21.0838 11.1004 21.8591C11.3072 22.3244 11.4364 22.7637 11.4364 23.1256C11.4623 23.5391 11.4106 23.9268 11.3072 24.3145C11.2038 24.7022 11.0229 25.0898 10.7645 25.5034C10.5577 25.8394 10.3251 26.1237 10.0408 26.3821C9.83401 26.5372 9.57556 26.6664 9.3171 26.744C9.23956 26.7698 9.16203 26.7698 9.08449 26.7698C9.0328 26.7698 8.95526 26.7698 8.90357 26.744C8.43835 26.6406 7.99897 26.5113 7.5596 26.3304C7.17191 26.1754 6.99099 26.072 6.9393 26.0203L6.24147 25.4775C6.21563 25.1157 6.18978 24.5471 6.18978 23.6166C6.18978 22.8671 6.29316 22.1951 6.49993 21.6007C6.62916 21.2647 6.88761 20.9028 7.30114 20.541C7.58544 20.4118 7.81805 20.3084 8.02482 20.205Z"
    fill="#070E25"
  />
<path
    d="M20.7701 13.3298C20.2532 13.3298 19.7621 13.4591 19.2969 13.7175C18.3923 14.2344 17.772 15.2166 17.6686 16.3021L17.6169 16.7156V17.2584C17.9271 24.7536 18.1339 29.2766 18.1597 29.8452C18.2889 31.6285 19.1418 32.4039 19.8655 32.7657C20.279 32.9725 20.7184 33.0759 21.1578 33.0759C22.0107 33.0759 22.8378 32.6882 23.4064 31.9904C24.0525 31.215 24.2334 30.2329 24.1817 27.6483C24.1559 26.0717 24.13 24.3659 24.13 22.6084C24.13 21.5229 24.13 20.8767 24.1042 20.4115C24.2593 20.2048 24.4402 19.998 24.6728 19.8171C24.8279 19.6879 25.0346 19.6103 25.3189 19.5586C25.5257 19.5069 25.7325 19.4811 25.8875 19.4811C25.9909 19.4811 26.0426 19.4811 26.0943 19.5069C26.1718 19.5328 26.1977 19.5328 26.2235 19.5586C26.7146 20.0238 27.0764 20.3081 27.4124 20.4891C27.49 20.5408 27.6192 20.6183 27.8518 20.7734C28.4979 21.2386 29.1958 21.4712 29.8678 21.4712C30.7724 21.4712 31.6253 21.0577 32.2197 20.3081C32.7625 19.6103 33.0209 18.7316 32.8917 17.827C32.7625 16.8707 32.1939 16.0436 31.3151 15.5009C31.2117 15.4492 31.005 15.2941 30.6173 14.984C29.9453 14.4153 29.1441 14.0018 28.2912 13.7692C27.645 13.5883 26.8955 13.4849 26.0685 13.4332H25.6291C24.8796 13.4332 24.13 13.5366 23.3805 13.7175C23.1479 13.7692 22.9153 13.8467 22.7085 13.9243C22.1399 13.5366 21.4679 13.304 20.7701 13.3298Z"
    fill="#070E25"
  />
<path
    d="M37.5701 11.7271C36.8722 11.7271 36.1744 11.9597 35.4766 12.4249L35.399 12.4766C35.1147 12.6834 34.8821 12.9418 34.727 13.252L34.6753 13.3295C33.564 15.5522 32.9954 16.9738 32.7628 17.93C32.5819 18.7571 32.4268 19.6359 32.3234 20.5404C32.22 21.4709 32.1942 22.3238 32.22 23.0733C32.2717 24.1588 32.6077 25.1927 33.2538 26.1489C33.8224 27.0018 34.4686 27.6738 35.2181 28.1649C35.7867 28.5526 36.407 28.8627 37.0015 29.147C37.8027 29.5089 38.6039 29.6898 39.4051 29.6898H41.2143C42.1964 29.6898 42.9201 29.6123 43.4887 29.483C44.1348 29.328 44.8585 28.9661 45.8148 28.3717C46.952 27.648 47.7532 26.7692 48.2184 25.7354C48.5544 24.9859 48.8129 24.1847 48.968 23.3835C49.123 22.5823 49.2264 21.626 49.2264 20.5921C49.2264 19.4032 48.9421 18.0076 48.3477 16.431C47.624 14.4409 46.9262 13.2261 45.5822 12.8126C44.6259 12.5283 43.5921 12.6317 42.7392 13.1486C42.1447 13.4846 41.7054 13.9757 41.4211 14.596C41.1626 15.1904 41.0075 16.1208 41.5244 17.3356C41.757 17.8784 42.0672 18.5245 42.4032 19.2223C42.5583 19.5583 42.6616 19.9718 42.6616 20.4371C42.6616 21.1091 42.6099 21.7035 42.5066 22.1429C42.4032 22.6598 42.2998 22.8407 42.2998 22.8407C42.2998 22.8666 42.1706 23.0475 41.8087 23.3835C41.6795 23.5127 41.5244 23.5902 41.3177 23.6419C40.93 23.7453 40.594 23.797 40.2838 23.797C39.9995 23.797 39.7152 23.7453 39.4309 23.6678C39.1983 23.5902 38.9916 23.4868 38.8106 23.3576C38.6556 23.2284 38.5522 23.125 38.5263 23.0992C38.5005 23.0216 38.4488 22.7373 38.3971 22.1946C38.3454 21.6001 38.3971 21.0574 38.5263 20.5663C38.7073 19.8943 38.9399 19.1965 39.2242 18.4728C39.5602 17.6716 39.7152 17.3873 39.7411 17.3356C40.1805 16.7411 40.4389 16.095 40.5165 15.4489C40.6198 14.6735 40.4906 13.9498 40.1288 13.3037C39.6636 12.3215 38.6556 11.7013 37.5701 11.7271Z"
    fill="#070E25"
  />
<path
    d="M52.4075 0.898193C51.7097 0.898193 51.0635 1.1308 50.5466 1.57018C49.7712 2.24216 49.642 3.04338 49.5386 3.99967C49.4611 5.00765 49.4094 6.86853 49.3836 9.84077C49.3319 14.9065 49.2802 16.664 49.2285 17.2585C49.1509 18.2148 49.0993 20.0756 49.0734 22.7636C49.0476 25.374 48.9959 27.1832 48.97 28.1136C48.9183 29.3284 48.9442 30.0779 49.0734 30.6206C49.4352 32.4298 50.8051 33.1018 51.8647 33.1018C52.7176 33.1018 53.5189 32.7141 54.0875 32.068C54.2425 32.1455 54.3718 32.2489 54.5268 32.3265C55.3281 32.74 56.1034 32.9984 56.8788 33.0501C57.0597 33.076 57.2406 33.076 57.4215 33.076C57.9126 33.076 58.4554 33.0243 59.1015 32.9467C59.8252 32.8434 60.3938 32.7658 60.7815 32.6883C61.531 32.5591 62.3064 32.2231 63.2368 31.6286C64.0897 31.06 64.7617 30.4139 65.2011 29.7677L66.0023 28.5788C66.5192 27.8035 66.8035 26.9247 66.8552 25.9167C66.9069 24.6245 66.8552 23.3063 66.7001 22.0141C66.6226 21.1353 66.4158 20.3082 66.1315 19.6104C65.9248 19.1193 65.718 18.5766 65.4854 18.008C65.0977 16.9742 64.5808 16.2246 63.9088 15.7336C63.4177 15.3459 62.875 15.0357 62.3064 14.8031C61.867 14.6222 61.3501 14.4154 60.7556 14.2087C60.0061 13.9502 59.2824 13.821 58.5587 13.821H58.1969C57.5508 13.8727 56.7754 14.0019 55.845 14.2345C55.6899 14.2862 55.5348 14.3121 55.3797 14.3638C55.3797 13.485 55.4056 12.4253 55.4314 11.0555C55.509 5.91224 55.5865 4.9818 55.6124 4.82673C55.7674 3.56029 55.3797 1.95786 53.8032 1.28588C53.3121 1.00158 52.8469 0.898193 52.4075 0.898193ZM56.8271 20.2307C57.1631 20.179 57.4732 20.1532 57.7575 20.1532H58.8689C59.0757 20.2566 59.3083 20.3858 59.5667 20.4892C59.9803 20.851 60.2646 21.2128 60.3679 21.5488C60.5747 22.1433 60.6781 22.8153 60.6781 23.5648C60.6781 24.4694 60.6522 25.0638 60.6264 25.4257L59.9286 25.9684C59.8769 26.0201 59.696 26.1235 59.3083 26.2786C58.8689 26.4337 58.4295 26.5887 57.9643 26.6921C57.9126 26.718 57.8351 26.718 57.7834 26.718C57.7058 26.718 57.6283 26.718 57.5508 26.6921C57.2923 26.6146 57.0597 26.4853 56.8271 26.3303C56.672 26.201 56.4136 25.9426 56.1034 25.4515C55.845 25.038 55.664 24.6245 55.5607 24.2626C55.4573 23.8749 55.4314 23.4873 55.4314 23.0737C55.4573 22.7119 55.5607 22.2725 55.7674 21.8073C56.1034 21.0578 56.2585 20.7993 56.2843 20.7476C56.3877 20.6959 56.5169 20.515 56.8271 20.2307Z"
    fill="#070E25"
  />
<path
    d="M81.1886 12.7615C81.0594 12.7615 80.9301 12.7615 80.8009 12.7873C79.7929 12.9165 78.9659 13.4852 78.4748 14.3381C78.268 14.2864 78.0613 14.2347 77.8287 14.1571C76.8982 13.9245 76.1228 13.7953 75.4767 13.7436H75.089C74.3653 13.7436 73.6417 13.8728 72.8921 14.1313C72.2977 14.3381 71.7549 14.5448 71.3414 14.7257C70.747 14.9842 70.2042 15.2943 69.739 15.6562C69.067 16.1731 68.5759 16.9226 68.1624 17.9306C67.9298 18.525 67.723 19.0678 67.5163 19.533C67.232 20.2309 67.051 21.0579 66.9477 21.9367C66.7926 23.2289 66.7409 24.5471 66.7926 25.8394C66.8443 26.8473 67.1286 27.7261 67.6455 28.5014L68.4467 29.6903C68.8861 30.3623 69.5581 30.9826 70.411 31.5512C71.3156 32.1457 72.0909 32.5075 72.8663 32.6109C73.2798 32.6884 73.8484 32.766 74.5463 32.8694C75.1924 32.9727 75.7352 32.9986 76.2262 32.9986C76.4071 32.9986 76.5881 32.9986 76.769 32.9727C77.5444 32.921 78.3197 32.6626 79.1209 32.2491C79.276 32.1715 79.4052 32.094 79.5603 31.9906C80.1031 32.6626 80.9301 33.0244 81.783 33.0244C82.8427 33.0244 84.2125 32.3783 84.5744 30.5691C84.6777 30.0263 84.7036 29.2768 84.6777 28.0621C84.6519 27.1316 84.6261 25.3741 84.5744 22.712C84.5485 20.0499 84.4968 18.1891 84.4193 17.2069C84.3159 15.9146 84.1867 15.1393 83.9282 14.5448C83.4372 13.4593 82.3775 12.7615 81.1886 12.7615ZM74.8047 20.205H75.9161C76.2004 20.205 76.5364 20.2309 76.8465 20.2825C77.1567 20.5668 77.3117 20.7478 77.3634 20.7995C77.3893 20.8511 77.5444 21.0838 77.8804 21.8591C78.0871 22.3243 78.2163 22.7637 78.2163 23.1256C78.2422 23.5391 78.1905 23.9268 78.0871 24.3145C77.9837 24.7021 77.8028 25.0898 77.5444 25.5034C77.3376 25.8393 77.105 26.1237 76.8207 26.3821C76.6139 26.563 76.3555 26.6664 76.097 26.7439C76.0195 26.7698 75.9419 26.7698 75.8644 26.7698C75.8127 26.7698 75.7352 26.7698 75.6835 26.7439C75.2183 26.6406 74.7789 26.5113 74.3395 26.3304C73.9518 26.1753 73.7709 26.072 73.7192 26.0203L73.0214 25.4775C72.9955 25.1157 72.9697 24.5471 72.9697 23.6166C72.9697 22.8671 73.0731 22.1951 73.2798 21.6007C73.4091 21.2647 73.6675 20.9028 74.081 20.541C74.3653 20.4118 74.598 20.3084 74.8047 20.205Z"
    fill="#070E25"
  />
<path
    d="M88.2519 25.3224C88.0193 25.3224 87.7609 25.3741 87.5282 25.4516L87.0113 25.6584C85.3314 26.2787 84.7628 27.3642 84.5818 28.1654C84.4526 28.734 84.4268 29.3026 84.5043 29.8454C84.6077 30.4915 84.9954 31.6804 86.6237 32.3524C87.1664 32.585 87.7092 32.6884 88.2519 32.6884C88.6396 32.6884 89.0273 32.6367 89.3891 32.5074C90.1128 32.2748 90.7331 31.8613 91.1983 31.2927C91.8703 30.4915 92.1029 29.4577 91.8445 28.4238C91.6377 27.5968 91.1466 26.8731 90.4488 26.382C90.2162 26.227 90.0094 26.0719 89.8027 25.9685C89.6993 25.8651 89.5959 25.7617 89.4667 25.6584C89.079 25.4516 88.6655 25.3224 88.2519 25.3224ZM95.1269 5.88647C94.3515 5.88647 93.6278 6.09324 92.9558 6.50677C92.258 6.94614 91.7411 7.51475 91.4568 8.21258C91.25 8.6778 91.1466 9.16887 91.0691 9.71162C91.0174 10.0993 91.0174 10.4611 91.0174 10.823C91.0174 11.4691 91.1466 12.0636 91.4309 12.6063C91.586 12.8906 91.7411 13.1749 91.922 13.4592C92.1029 13.7177 92.3355 14.0278 92.6457 14.4155L92.6974 14.4931C92.7232 14.5189 92.7491 14.5706 92.7749 14.5964C92.7232 14.8807 92.6974 15.1909 92.6974 15.501C92.6974 16.0438 92.7749 16.5607 92.93 17.0518C93.4469 23.3064 93.7054 26.7439 93.757 27.1574C93.8863 28.7857 94.8426 29.5611 95.3853 29.8712C95.9022 30.1555 96.4191 30.3106 96.9619 30.3106C97.4788 30.3106 97.9957 30.1555 98.4609 29.897C98.952 29.6127 99.7791 28.8891 99.9341 27.39C99.96 27.054 100.012 26.6663 99.4948 20.9803C99.0554 16.0955 98.9262 15.0617 98.8745 14.7257C98.8228 14.4672 98.7711 14.2088 98.6677 13.9761C98.8745 13.6918 99.0554 13.3559 99.2363 12.9682C99.624 12.0636 99.8049 11.1848 99.7274 10.3319C99.6757 9.50486 99.4431 8.75534 99.0812 8.08335C98.616 7.23045 97.8406 6.55846 96.9361 6.19662C96.2899 5.98986 95.6955 5.88647 95.1269 5.88647Z"
    fill="#070E25"
  />
<path
    d="M107.558 2.55249C106.705 2.55249 105.904 2.91433 105.258 3.56047C104.431 4.38753 104.224 5.4472 104.276 8.31606L104.353 11.3917C101.485 11.6501 101.174 11.8052 100.735 12.0895C99.7012 12.684 99.1326 13.6661 99.1326 14.7516C99.1326 15.3719 99.3393 15.9664 99.727 16.4574C100.063 16.8968 100.735 17.4396 101.872 17.5688C102.053 17.5946 102.234 17.5946 102.467 17.5946C102.906 17.5946 103.5 17.5688 104.328 17.4913C104.353 18.4992 104.353 19.7915 104.379 21.3422C104.457 26.0978 104.431 27.6744 104.405 28.1655C104.328 29.4578 104.483 30.3624 104.896 31.0602C105.491 32.094 106.447 32.6626 107.507 32.6626C108.282 32.6626 109.367 32.3525 110.22 30.9051C110.711 30.0522 110.866 28.8892 110.789 26.5889C110.737 25.0123 110.711 22.7379 110.737 19.8432C110.737 18.7318 110.763 17.8014 110.763 17.1036H111.022C112.417 17.1036 113.503 16.69 114.201 15.8888C115.389 14.5449 115.105 12.9683 114.33 12.012C113.89 11.4951 113.063 10.8489 111.642 10.8489H111.461C111.254 10.8489 111.022 10.8748 110.763 10.8748C110.763 10.668 110.763 10.4354 110.737 10.1769C110.711 8.21268 110.66 6.89455 110.556 6.04165C110.505 5.57643 110.427 5.00782 110.22 4.43922C109.833 3.4054 109.031 2.73341 108.023 2.60418C107.843 2.55249 107.687 2.55249 107.558 2.55249Z"
    fill="#070E25"
  />
<path
    d="M15.0381 31.0083C14.8055 31.0083 14.4437 30.9049 14.1852 30.388C14.0818 30.1812 13.9784 29.7418 13.9526 28.1136L12.8412 29.3283C12.4277 29.7935 11.9366 30.1554 11.3939 30.4397C10.9286 30.724 10.3859 30.879 9.84313 30.9307C9.37791 30.9566 8.80931 30.9307 8.08563 30.8274C7.3878 30.724 6.84504 30.6464 6.43151 30.5689C5.96629 30.4914 5.44938 30.2588 4.80324 29.8194C4.1571 29.4058 3.69188 28.9665 3.40758 28.5271L2.60636 27.3382C2.29622 26.8988 2.14114 26.3302 2.08945 25.7099C2.06361 25.1413 2.06361 24.5469 2.08945 23.9783C2.1153 23.4097 2.16699 22.7894 2.24453 22.1174C2.32206 21.4196 2.45129 20.7993 2.65806 20.2823C2.86482 19.7913 3.07159 19.2485 3.3042 18.6541C3.56265 17.9821 3.8728 17.5169 4.20879 17.2584C4.54479 17 4.90662 16.7932 5.346 16.6123C5.75953 16.4314 6.2506 16.2504 6.79335 16.0695C7.41365 15.8628 7.98225 15.7594 8.52501 15.8111C9.04192 15.8369 9.71391 15.9661 10.5151 16.1729C11.3422 16.3797 11.9883 16.6123 12.4794 16.8449C12.7895 17 13.0997 17.2067 13.3323 17.4393C13.3064 17.1292 13.2806 16.8707 13.2548 16.6381C13.2289 16.2246 13.2548 15.8369 13.384 15.5268C13.5391 15.1391 13.8492 14.8806 14.2369 14.8289C14.6763 14.7772 15.0381 15.0098 15.2449 15.4492C15.3999 15.7852 15.5033 16.4314 15.5809 17.4135C15.6584 18.3439 15.7101 20.1531 15.7359 22.7894C15.7618 25.4256 15.8135 27.2348 15.8393 28.1911C15.8652 29.1991 15.8652 29.8452 15.7876 30.2071C15.6842 30.9049 15.2707 31.0083 15.0381 31.0083ZM4.54479 20.9285C4.26048 21.7297 4.13126 22.6601 4.13126 23.6164C4.13126 24.6244 4.1571 25.3998 4.23464 25.9425C4.28633 26.3819 4.4414 26.6921 4.67401 26.8471C5.01001 27.0797 5.346 27.3382 5.68199 27.5967C5.96629 27.8293 6.37982 28.036 6.87089 28.2428C7.3878 28.4237 7.90471 28.6046 8.44747 28.7339C8.93854 28.8372 9.4296 28.8372 9.94652 28.6822C10.4634 28.5271 10.9286 28.2945 11.3422 27.9585C11.8074 27.5708 12.2209 27.0797 12.5311 26.5628C12.8929 25.9684 13.1772 25.3739 13.3323 24.7795C13.4874 24.185 13.5391 23.5906 13.5132 22.9703C13.4874 22.35 13.3064 21.678 12.9963 20.9802C12.6086 20.0756 12.376 19.6879 12.2468 19.5328C12.0659 19.3002 11.8074 19.0159 11.4456 18.7058C11.1613 18.4473 10.7994 18.2664 10.4117 18.2147C9.97236 18.163 9.53299 18.1113 9.11946 18.1113H7.87887C7.49118 18.1113 7.28442 18.1889 7.20688 18.2405C7.00012 18.3698 6.66412 18.5507 6.1989 18.7575C5.37184 19.4294 4.82909 20.179 4.54479 20.9285ZM21.1635 31.0083C21.0343 31.0083 20.9309 30.9824 20.8017 30.9307C20.4657 30.7757 20.2848 30.3621 20.2331 29.716C20.2072 29.2249 20.0263 25.193 19.6903 17.1809V16.9224L19.742 16.5089C19.7937 16.0954 20.0005 15.7077 20.3623 15.5268C20.5174 15.4492 20.6466 15.3975 20.8017 15.3975C21.1118 15.3975 21.4478 15.5009 21.6029 15.7852C21.8097 16.2246 21.7838 16.8449 21.8355 17.0258C21.913 16.9483 21.9906 16.8449 22.094 16.7415C22.5333 16.2504 23.1278 15.9144 23.8773 15.7335C24.5751 15.5526 25.273 15.5009 25.9708 15.5268C26.6428 15.5526 27.2631 15.656 27.78 15.7852C28.3486 15.9403 28.8655 16.2246 29.3049 16.5864C29.6667 16.8966 29.9769 17.1292 30.2095 17.2584C30.5713 17.491 30.7781 17.7753 30.8298 18.1372C30.8815 18.4732 30.8039 18.7833 30.5972 19.0418C30.3387 19.3778 30.0544 19.4294 29.8476 19.4294C29.5892 19.4294 29.3307 19.3261 29.0206 19.1193C28.788 18.9642 28.607 18.835 28.452 18.7316C28.2711 18.6282 27.9867 18.3956 27.5991 18.0338C27.2889 17.7495 26.9012 17.5686 26.4877 17.491C26.0483 17.4135 25.5056 17.4135 24.9111 17.5427C24.3167 17.6719 23.7998 17.8787 23.3862 18.2147C22.9727 18.5507 22.6109 18.9384 22.3266 19.3519C22.1198 19.6879 22.0423 19.843 21.9906 19.8947C22.0164 20.2048 22.0423 20.8768 22.0423 22.6085C22.0423 24.3918 22.0681 26.1235 22.094 27.7C22.1456 30.0778 21.9647 30.4914 21.8096 30.6723C21.6546 30.9049 21.422 31.0083 21.1635 31.0083ZM41.2455 27.6225H39.4364C38.9194 27.6225 38.4025 27.4933 37.8598 27.2607C37.3429 27.0281 36.8518 26.7696 36.3866 26.4594C35.8955 26.1235 35.4303 25.6324 34.9909 25.0379C34.5774 24.4435 34.3448 23.7715 34.3189 23.0478C34.2931 22.4017 34.3189 21.6522 34.4223 20.8251C34.5257 19.998 34.6549 19.1968 34.81 18.4473C34.9909 17.6719 35.5595 16.328 36.5416 14.312L36.5933 14.2345L36.6709 14.1828C37.0069 13.9502 37.2912 13.8468 37.5755 13.8468C37.9115 13.8468 38.1958 14.0277 38.3508 14.312C38.4801 14.5705 38.5318 14.8548 38.5059 15.1908C38.4542 15.5009 38.325 15.8369 38.0924 16.1471C37.9632 16.328 37.7305 16.7157 37.3429 17.6978C37.0327 18.499 36.7484 19.3002 36.5675 20.0497C36.3866 20.7734 36.309 21.5488 36.3866 22.35C36.4641 23.358 36.6192 23.8232 36.7484 24.03C36.9293 24.3401 37.2136 24.6761 37.5755 24.9604C37.9632 25.2705 38.4025 25.5032 38.8677 25.6324C39.824 25.9167 40.8062 25.9167 41.8917 25.6324C42.4086 25.5032 42.8738 25.2447 43.2615 24.8829C43.6492 24.521 43.9593 24.185 44.1403 23.8749C44.3212 23.5647 44.4762 23.1254 44.5796 22.5568C44.7089 21.9623 44.7605 21.2386 44.7605 20.4116C44.7605 19.6104 44.6055 18.8867 44.2953 18.2664C43.9593 17.5944 43.675 16.9741 43.4424 16.4572C43.003 15.4492 43.52 15.0357 43.7526 14.9065C44.1661 14.6739 44.6055 14.6222 44.9932 14.7514C45.3291 14.8548 45.7168 15.2166 46.4147 17.1033C46.9057 18.4732 47.1642 19.6362 47.1642 20.5666C47.1642 21.4712 47.0867 22.2725 46.9574 22.9444C46.8282 23.6164 46.6214 24.2626 46.3371 24.8829C46.0528 25.529 45.5101 26.1235 44.7089 26.6145C43.9593 27.1056 43.3907 27.3899 42.9772 27.4933C42.6154 27.5708 42.0468 27.6225 41.2455 27.6225ZM51.8939 30.9824C51.6613 30.9824 51.2478 30.879 51.1186 30.1812C51.041 29.8194 51.0152 29.1474 51.0669 28.1653C51.0927 27.209 51.1444 25.3998 51.1703 22.7635C51.1961 20.1273 51.2478 18.3181 51.3253 17.3876C51.4029 16.483 51.4287 13.9243 51.4804 9.84072C51.5321 3.48271 51.713 3.32763 51.8939 3.14671C52.0749 2.99164 52.4367 2.83657 52.9795 3.09502C53.3154 3.2501 53.6773 3.58609 53.5739 4.49068C53.5222 5.0076 53.4447 7.17863 53.3671 10.9262C53.2896 14.6739 53.2896 16.9224 53.3154 17.6202C53.6256 17.2843 53.9616 17.0258 54.401 16.819C54.892 16.5864 55.5382 16.3538 56.3652 16.1471C57.1664 15.9403 57.8384 15.8369 58.3553 15.7852C58.8981 15.7594 59.4925 15.8369 60.087 16.0437C60.6556 16.2504 61.1467 16.4314 61.5343 16.5864C61.9737 16.7673 62.3356 16.9741 62.6716 17.2326C63.0334 17.5169 63.3177 17.9821 63.5761 18.6282C63.8088 19.2227 64.0155 19.7654 64.2223 20.2565C64.4291 20.7734 64.5841 21.3937 64.6358 22.0915C64.7133 22.7635 64.765 23.3838 64.7909 23.9524C64.8167 24.521 64.8167 25.1155 64.7909 25.6841C64.765 26.3044 64.5841 26.873 64.274 27.3124L63.4728 28.5013C63.1885 28.9406 62.7232 29.38 62.0771 29.7935C61.431 30.2329 60.8882 30.4655 60.4488 30.5431C60.0611 30.6206 59.5184 30.6981 58.7947 30.8015C58.071 30.9049 57.4766 30.9307 57.0372 30.9049C56.5461 30.879 56.0292 30.6981 55.4865 30.4138C54.9437 30.1295 54.4785 29.7418 54.0391 29.3025L52.9278 28.0877C52.9019 29.716 52.7985 30.1554 52.6951 30.3621C52.4625 30.879 52.1265 30.9824 51.8939 30.9824ZM57.7867 18.1113C57.3732 18.1113 56.9597 18.1372 56.4945 18.2147C56.1068 18.2664 55.7708 18.4215 55.4606 18.7058C55.1246 19.0159 54.8403 19.3002 54.6594 19.5328C54.5302 19.6879 54.2976 20.0756 53.9099 20.9802C53.5997 21.7039 53.4188 22.3758 53.393 22.9703C53.3671 23.5906 53.4188 24.2109 53.5739 24.7795C53.729 25.3739 53.9874 25.9684 54.3751 26.5628C54.6853 27.0797 55.0988 27.5708 55.564 27.9585C55.9775 28.2945 56.4686 28.5271 56.9597 28.6822C57.4507 28.8372 57.9418 28.8372 58.4587 28.7339C59.0015 28.6046 59.5442 28.4496 60.0353 28.2428C60.5264 28.0619 60.9141 27.8551 61.2242 27.5967C61.5602 27.3382 61.8962 27.0797 62.2322 26.8471C62.4648 26.6921 62.6199 26.3819 62.6716 25.9425C62.7232 25.3998 62.7749 24.5986 62.7749 23.6164C62.7749 22.6343 62.6199 21.7297 62.3614 20.9285C62.1029 20.1531 61.5343 19.4294 60.7073 18.7575C60.2421 18.5507 59.9061 18.3956 59.6993 18.2405C59.5959 18.1889 59.415 18.1113 59.0273 18.1113H57.7867ZM81.8231 31.0083C81.5905 31.0083 81.2287 30.9049 80.9702 30.388C80.8669 30.1812 80.7635 29.7418 80.7376 28.1136L79.6263 29.3283C79.2127 29.7935 78.7217 30.1554 78.1789 30.4397C77.7137 30.724 77.1709 30.879 76.6282 30.9307C76.1629 30.9566 75.5943 30.9307 74.8707 30.8274C74.1728 30.724 73.6301 30.6464 73.2166 30.5689C72.7513 30.4914 72.2344 30.2588 71.5883 29.8194C70.9421 29.4058 70.4769 28.9665 70.1926 28.5271L69.3914 27.3382C69.0813 26.873 68.9262 26.3302 68.8745 25.7099C68.8486 25.1413 68.8486 24.5469 68.8745 23.9783C68.9003 23.4097 68.952 22.7894 69.0296 22.1174C69.1071 21.4196 69.2363 20.7993 69.4431 20.2823C69.6499 19.7913 69.8566 19.2485 70.0892 18.6541C70.3477 17.9821 70.6578 17.5169 70.9938 17.2584C71.3298 17 71.6917 16.7932 72.131 16.6123C72.5446 16.4314 73.0356 16.2504 73.5784 16.0695C74.1987 15.8628 74.7673 15.7594 75.3101 15.8111C75.827 15.8369 76.4989 15.9661 77.3002 16.1729C78.1272 16.3797 78.7734 16.6123 79.2644 16.8449C79.5746 17 79.8847 17.2067 80.1173 17.4393C80.0915 17.1292 80.0656 16.8707 80.0398 16.6381C80.0139 16.2246 80.0398 15.8369 80.169 15.5268C80.3241 15.1391 80.6342 14.8806 81.0219 14.8289C81.4613 14.7772 81.8231 15.0098 82.0299 15.4492C82.185 15.7852 82.2884 16.4314 82.3659 17.4135C82.4434 18.3439 82.4951 20.1531 82.521 22.7894C82.5468 25.4773 82.5985 27.2348 82.6244 28.1911C82.6502 29.1991 82.6502 29.8452 82.5727 30.2071C82.4693 30.9049 82.0557 31.0083 81.8231 31.0083ZM71.3557 20.9285C71.0714 21.7297 70.9421 22.6601 70.9421 23.6164C70.9421 24.6244 70.968 25.3998 71.0455 25.9425C71.0972 26.3819 71.2523 26.6921 71.4849 26.8471C71.8209 27.0797 72.1569 27.3382 72.4929 27.5967C72.7772 27.8293 73.1907 28.036 73.6818 28.2428C74.1987 28.4237 74.7156 28.6046 75.2584 28.7339C75.7494 28.8372 76.2405 28.8372 76.7574 28.6822C77.2743 28.5271 77.7395 28.2945 78.1531 27.9585C78.6183 27.5708 79.0318 27.0797 79.342 26.5628C79.7038 25.9684 79.9881 25.3739 80.1432 24.7795C80.2982 24.185 80.3499 23.5906 80.3241 22.9703C80.2982 22.35 80.1173 21.678 79.8072 20.9802C79.4195 20.0756 79.1869 19.6879 79.0577 19.5328C78.8767 19.3002 78.6183 19.0159 78.2564 18.7058C77.9721 18.4473 77.6103 18.2664 77.2226 18.2147C76.7832 18.163 76.3439 18.1113 75.9303 18.1113H74.6898C74.3021 18.1113 74.0953 18.1889 74.0178 18.2405C73.811 18.3698 73.475 18.5507 73.0098 18.7575C72.1827 19.4294 71.6141 20.179 71.3557 20.9285ZM88.2587 30.6206C88.0002 30.6206 87.7159 30.5689 87.4316 30.4397C86.9147 30.2071 86.6046 29.9228 86.5529 29.5351C86.5012 29.2508 86.527 28.9406 86.6046 28.6046C86.708 28.1653 87.0698 27.8293 87.7418 27.5708L88.2587 27.364V27.6483C88.3621 27.6483 88.4655 27.6742 88.5688 27.7C88.7498 27.7517 88.9565 27.8551 89.2408 28.0619C89.551 28.2945 89.7577 28.5788 89.8353 28.9148C89.9387 29.3025 89.8611 29.6643 89.6027 29.9486C89.3959 30.2071 89.0858 30.388 88.7239 30.5172C88.5688 30.5947 88.4138 30.6206 88.2587 30.6206ZM96.9687 28.2428C96.8136 28.2428 96.6327 28.1911 96.4001 28.0877C96.0641 27.881 95.8573 27.5191 95.8056 27.0022C95.7798 26.6145 95.4955 23.1512 94.9786 16.664C94.8493 16.3021 94.7718 15.9403 94.7718 15.5268C94.7718 15.0615 94.8752 14.7255 95.0561 14.4929C95.2112 14.312 95.4696 14.1052 95.9607 14.1052C96.245 14.1052 96.7102 14.2345 96.8394 15.0874C96.917 15.5268 97.0979 17.5427 97.4339 21.2128C97.8733 26.1235 97.8991 27.0022 97.8733 27.2348C97.8216 27.7 97.6665 28.0102 97.3822 28.1653C97.2788 28.1911 97.1237 28.2428 96.9687 28.2428ZM95.4438 13.485C95.1336 13.485 94.7718 13.4074 94.41 13.2523L94.3066 13.2265L94.2549 13.149C93.9964 12.813 93.7897 12.5287 93.6346 12.3219C93.5054 12.1151 93.3761 11.9084 93.2728 11.6758C93.1435 11.4173 93.0918 11.133 93.0918 10.797C93.0918 10.5127 93.1177 10.2284 93.1435 9.91826C93.1694 9.58227 93.2469 9.27212 93.3761 9.01367C93.5054 8.70352 93.738 8.44506 94.074 8.2383C94.6943 7.85061 95.3921 7.85061 96.245 8.16076C96.7102 8.31583 97.0462 8.62598 97.3046 9.0912C97.5373 9.50473 97.6665 9.96995 97.6923 10.4869C97.7182 11.0038 97.6148 11.5724 97.3563 12.1668C97.072 12.813 96.7619 13.1748 96.4001 13.304C96.0641 13.4074 95.7539 13.485 95.4438 13.485ZM95.237 11.5724C95.3662 11.6499 95.5472 11.6499 95.6764 11.5724C95.6764 11.5724 95.7539 11.5207 95.8831 11.2364C95.9865 11.0038 96.0124 10.8229 96.0124 10.6419C95.9865 10.4352 95.9348 10.2543 95.8573 10.0992C95.8056 9.9958 95.7281 9.91826 95.6247 9.89242C95.3921 9.78903 95.2112 9.76319 95.0561 9.86657C94.9786 9.91826 94.9527 9.96995 94.9269 10.0216C94.901 10.0992 94.8752 10.2026 94.8752 10.3059V10.7453C94.8752 10.8487 94.8752 10.9521 94.901 11.0038C94.9269 11.0813 94.9527 11.1589 95.0044 11.2364C95.0302 11.2881 95.1078 11.3915 95.237 11.5724ZM107.488 30.6206C107.255 30.6206 106.945 30.5172 106.661 30.052C106.48 29.716 106.402 29.1732 106.454 28.2945C106.506 27.545 106.48 25.193 106.428 21.3162C106.376 18.0596 106.351 15.9661 106.351 15.32C106.17 15.2941 105.73 15.2683 104.748 15.3717C103.353 15.5268 102.474 15.5526 102.086 15.5268C101.285 15.4234 101.207 14.9582 101.207 14.7514C101.207 14.4929 101.311 14.1569 101.776 13.8726C101.931 13.7693 102.215 13.6142 106.506 13.304C106.428 11.6241 106.376 9.94411 106.351 8.28999C106.299 5.67958 106.532 5.24021 106.738 5.03344C107.126 4.64576 107.488 4.61991 107.72 4.64576C108.289 4.72329 108.418 5.49866 108.496 6.24819C108.573 7.0494 108.625 8.36752 108.651 10.2284C108.677 12.1151 108.728 12.7871 108.754 13.0197C108.858 13.0456 109.116 13.0714 109.659 13.0456C110.434 12.9939 111.055 12.968 111.494 12.9422C112.062 12.9164 112.45 13.0714 112.709 13.3557C112.838 13.5108 113.122 13.976 112.605 14.5446C112.295 14.8806 111.778 15.0615 110.977 15.0615C110.331 15.0615 109.711 15.0874 109.168 15.1132C108.883 15.1391 108.754 15.1649 108.677 15.1908C108.677 15.6043 108.651 17.0775 108.625 19.843C108.599 22.7894 108.599 25.0896 108.677 26.7179C108.78 28.9665 108.573 29.6126 108.392 29.8969C108.212 30.1812 107.927 30.6206 107.488 30.6206Z"
    fill="white"
  />
</svg>
