<svg width="135" height="28" viewBox="0 0 135 28" fill="none" xmlns="http://www.w3.org/2000/svg">
<path fill-rule="evenodd" clip-rule="evenodd" d="M30.046 5.48468C28.01 2.097 23.4471 4.03537 24.4224 7.94588C25.7304 13.1926 32.1195 14.4495 34.4737 19.1274C35.7663 21.6961 34.9567 24.2643 32.9784 25.3916C30.9495 26.5476 27.5205 27.0052 25.4141 25.4601C24.3581 24.6857 24.4459 24.1014 23.8888 25.5582C23.7095 26.0276 23.4115 26.5438 22.8309 26.0482C21.9166 25.2715 21.9354 22.8065 23.4758 21.7575C24.4576 21.2338 25.1236 21.5102 26.0327 22.4095C28.2386 24.2225 31.0471 23.6837 31.7741 22.1828C32.2434 21.2173 31.7704 19.7075 30.8326 18.6538C29.4758 17.1294 27.337 15.8157 25.576 13.7591C23.2538 11.0468 21.4829 8.01112 22.6408 5.02051C23.648 2.41803 26.5419 0.0215931 29.9578 1.75016C31.9759 2.77144 33.9471 5.10405 32.8165 7.41882C32.0379 9.01457 29.6278 9.52802 28.5141 7.87595C27.8425 6.87955 30.6111 6.40599 30.0474 5.48468H30.046Z" fill="#070E25"/>
<path fill-rule="evenodd" clip-rule="evenodd" d="M38.9783 10.9475C39.0722 13.8339 35.7929 13.61 35.7047 10.8395C35.6876 10.6233 35.7194 10.4059 35.7977 10.2036C35.8761 10.0013 35.9989 9.81915 36.1571 9.67074C36.3154 9.52232 36.505 9.4114 36.7119 9.34619C36.9188 9.28097 37.1378 9.26314 37.3525 9.29402C37.7419 9.34611 38.106 9.51611 38.3959 9.78119C38.5684 9.92469 38.7092 10.1024 38.8095 10.3032C38.9097 10.504 38.9672 10.7234 38.9783 10.9475Z" fill="#070E25"/>
<path fill-rule="evenodd" clip-rule="evenodd" d="M35.9371 17.3925C35.8902 17.4216 35.8433 17.4493 35.7963 17.4747C34.4043 18.2514 34.8234 16.6655 35.5729 15.7315C36.329 14.7886 36.964 14.4376 37.5517 14.5192C37.7877 14.5338 38.0132 14.6222 38.1962 14.7721C38.3792 14.922 38.5103 15.1256 38.5711 15.3542C38.9498 17.1846 36.8885 22.3173 39.0686 23.6704C39.2654 23.8002 39.5039 23.8512 39.7366 23.8132C39.9693 23.7751 40.1792 23.651 40.3245 23.4653C40.7342 22.9884 40.7901 22.2084 41.3026 22.053C41.533 21.9836 41.725 22.0817 41.8085 22.6937C41.9611 24.5354 41.1397 27.1688 38.6302 26.2663C36.3966 25.2502 36.4938 20.9806 36.5022 18.6391C36.5022 18.48 36.4431 17.0795 35.9353 17.3925H35.9371Z" fill="#070E25"/>
<path d="M52.1048 14.2217C52.0368 13.9939 51.8957 13.7948 51.7034 13.6551C51.511 13.5154 51.278 13.4428 51.0404 13.4487C49.8097 13.5458 49.5699 13.4956 48.4191 13.566C47.2683 13.6364 46.2841 13.6838 45.4646 13.7138C45.6248 12.3058 45.7852 10.8978 45.9457 9.4898C46.3906 5.39718 46.4105 2.8784 46.0053 1.93347C45.6993 1.21726 45.2091 0.937382 44.5349 1.09383C43.485 1.28813 43.2353 3.09978 43.1198 6.50529C43.1124 9.0331 43.2354 11.5596 43.4882 14.0748C43.2371 14.1362 42.4721 14.3564 41.969 14.5075C41.5525 14.6214 41.1495 14.7798 40.767 14.9801C40.676 15.0339 40.6031 15.1136 40.5574 15.2089C40.5117 15.3042 40.4953 15.411 40.5103 15.5156C40.524 15.843 40.6025 16.1645 40.7412 16.4613C41.1461 17.4075 41.7734 18.8448 42.6233 20.7731C43.4731 22.7015 44.0452 24.0111 44.3396 24.702C44.854 25.9028 45.5209 26.4883 46.3404 26.4582C47.0003 26.4338 47.3941 26.3415 47.5217 26.1813C47.6494 26.0211 47.5823 25.6341 47.3204 25.0202C46.623 23.4189 46.1352 21.7343 45.8692 20.0081C45.7216 18.7016 45.6514 17.3875 45.6589 16.0727C48.2248 15.4828 49.9853 15.6405 51.4595 15.249L51.536 15.2218C52.1048 14.8642 51.7904 15.0491 51.9875 14.8346C52.0772 14.7634 52.1384 14.6624 52.1599 14.5499C52.1814 14.4374 52.1619 14.321 52.1048 14.2217ZM44.3673 22.2168L44.2932 22.3107L44.1754 22.3159C44.1754 22.3159 44.1209 22.2084 43.9665 21.8892C43.8121 21.5701 43.2376 19.5186 43.2062 19.4834C43.1747 19.4482 42.6674 17.5521 42.6087 17.3526C42.5715 17.2459 42.5656 17.1307 42.5918 17.0208C42.6375 16.9191 42.7036 16.8279 42.7861 16.7528C42.9833 16.6363 43.1945 16.5451 43.4146 16.4815L43.5136 16.4764L43.6004 16.6383L43.66 17.0424L43.8088 18.05L44.2641 20.9468L44.4175 22.0474L44.3673 22.2168Z" fill="#070E25"/>
<path fill-rule="evenodd" clip-rule="evenodd" d="M61.0771 23.2118C59.4879 25.1981 57.2487 27.0027 54.7199 26.2888C53.2804 25.7768 52.3455 24.3645 51.8795 22.6411C51.4466 20.9492 51.4135 19.1797 51.7828 17.4728C52.354 14.8567 53.9347 12.7067 55.782 12.6855C59.2551 13.0324 61.0283 16.8716 59.2589 19.5796C58.2733 21.0862 56.2316 21.8536 55.2413 22.3281C54.8659 22.5078 54.5702 22.5909 54.6209 23.3235C54.7401 25.0822 57.7185 25.054 59.593 21.1773C59.7658 20.8206 60.9377 19.2816 61.7018 19.7434C63.3036 20.7122 61.2733 22.9683 61.0771 23.2128V23.2118ZM53.793 20.7976C55.8782 20.1306 57.5862 18.327 57.742 17.3404C58.0358 15.4762 55.1817 13.8744 54.1281 16.9307C53.8596 17.7098 53.7864 19.4295 53.7934 20.7976H53.793Z" fill="#070E25"/>
<path fill-rule="evenodd" clip-rule="evenodd" d="M75.0754 16.3559C74.9234 17.9225 77.2926 26.0242 75.5884 26.165C74.584 26.2471 73.9669 26.3528 73.7031 25.8116C73.4529 25.2953 74.4409 21.1267 73.6299 22.3915C73.4421 22.6816 73.4792 22.7051 73.1798 23.2425C70.3872 28.2362 66.6002 26.9084 64.398 22.8468C62.9142 19.9181 62.3244 16.6177 62.7018 13.3563C63.3031 7.56236 65.7896 -0.0333912 71.6371 1.21411C76.2314 2.19455 73.0676 8.33677 71.462 6.76684C67.667 -1.54794 60.0989 18.5341 68.4723 23.387C70.8908 24.7884 72.9578 20.2204 72.4617 18.2097C72.1144 16.7975 72.0327 16.7482 71.3306 16.959C70.7852 17.1232 68.9149 18.726 68.3926 18.2417C67.7383 17.6348 67.3849 15.2473 68.6962 15.1778C70.2131 15.099 71.0729 15.5913 72.8653 13.4263C74.4939 11.4583 75.8222 12.0459 75.5406 14.1772C75.4176 15.1098 75.1435 15.6415 75.074 16.3577L75.0754 16.3559Z" fill="#070E25"/>
<path fill-rule="evenodd" clip-rule="evenodd" d="M85.8431 13.3793C84.4621 12.3798 82.7796 11.885 81.0774 11.9778C78.528 12.2421 76.1705 13.957 76.4127 16.6365C76.5159 17.7802 76.6314 22.6637 77.0669 24.6711C77.1119 25.0105 77.2497 25.3309 77.4649 25.5971C77.6802 25.8633 77.9647 26.065 78.2872 26.18C78.6182 26.2919 78.9786 26.2798 79.3013 26.1459C79.624 26.012 79.8871 25.7654 80.0416 25.452C80.4607 24.4711 79.9984 23.5615 79.76 22.7299C79.3289 20.9231 79.0484 19.0838 78.9213 17.2306C78.6397 14.2391 83.174 13.8294 84.2445 15.5701C83.4748 16.7604 84.59 17.5085 85.9853 16.4276C87.245 15.4514 86.74 14.0729 85.8445 13.3807L85.8431 13.3793Z" fill="#070E25"/>
<path fill-rule="evenodd" clip-rule="evenodd" d="M92.031 26.4433C98.3065 25.3849 100.72 15.627 92.9364 12.2979C84.8389 9.67482 84.4212 28.0386 92.031 26.4433ZM89.1835 18.5739C89.919 10.9082 94.9625 14.4743 95.6135 19.469C96.2588 24.4186 88.1041 27.3839 89.1835 18.5739Z" fill="#070E25"/>
<path fill-rule="evenodd" clip-rule="evenodd" d="M101.087 16.4226C100.118 18.5999 100.5 27.3333 105.003 23.1956C105.985 22.2931 106.11 19.394 105.742 16.914C105.657 16.3419 105.174 14.6007 105.011 14.0759C104.805 13.4071 105.362 12.4727 106.208 12.1873C106.552 12.0903 106.921 12.1236 107.242 12.281C107.564 12.4385 107.816 12.7089 107.95 13.0406C108.42 14.159 108.111 15.9922 108.06 16.7427C107.911 18.981 107.544 21.7355 108.342 23.1834C108.682 23.802 109.152 23.8644 109.168 24.3253C109.228 25.9732 107.268 27.0287 106.522 26.006C106.323 25.7333 106.488 25.2828 106.185 25.0805C102.482 28.4048 98.4042 25.7981 98.4666 21.0367C98.4802 19.9957 98.3352 18.2972 98.712 16.8239C99.0054 15.6773 99.1917 14.5852 99.7915 13.9647C100.576 13.3977 100.981 13.7385 101.231 13.9253C101.782 14.3383 101.369 15.6402 101.088 16.4226H101.087Z" fill="#070E25"/>
<path fill-rule="evenodd" clip-rule="evenodd" d="M117.64 23.8474C118.299 21.6021 119.072 17.9371 118.578 16.5807C117.839 14.5484 115.021 13.8031 113.63 15.8828C112.777 17.1584 112.754 21.7246 113.84 24.3965C114.099 25.0353 113.617 25.9261 112.794 26.1979C109.696 27.2234 112.104 18.6373 110.295 15.894C109.906 15.3041 109.431 15.2454 109.378 14.8047C109.187 13.2324 111.063 12.2233 111.889 13.201C112.109 13.4619 111.98 13.8909 112.298 14.0847C115.735 10.9125 120.849 13.2967 121.163 17.8394C121.191 20.208 120.781 22.5612 119.954 24.7809C119.761 25.2949 119.482 25.7723 119.128 26.1927C118.938 26.3786 118.684 26.4857 118.418 26.4925C118.151 26.4993 117.892 26.4053 117.693 26.2293C117.111 25.8355 117.419 24.5941 117.639 23.847L117.64 23.8474Z" fill="#070E25"/>
<path fill-rule="evenodd" clip-rule="evenodd" d="M131.293 13.8537C131.585 11.393 130.554 4.24168 128.664 4.06145C128.156 4.01452 128.035 2.77265 128.383 2.03673C128.73 1.30081 129.547 1.06755 130.908 1.62981C133.089 2.53094 133.255 10.7237 133.299 13.1919C133.341 15.564 133.225 18.5053 133.589 20.7525C133.703 21.4719 133.911 22.1734 134.207 22.8392C134.604 23.7394 135 24.3631 134.745 24.8728C134.191 25.9757 132.502 26.4075 131.929 25.8631C131.531 25.4844 131.355 24.8005 131.254 23.998C127.996 29.1837 122.826 25.1037 122.095 20.1165C121.391 15.3049 125.772 9.71978 131.294 13.8537H131.293ZM126.202 23.4066C130.291 26.3686 131.581 18.6935 129.544 15.8503C127.046 12.365 120.72 19.1309 126.202 23.4066Z" fill="#070E25"/>
<path fill-rule="evenodd" clip-rule="evenodd" d="M6.70823 21.6557C3.51063 20.61 1.22918 17.5035 0.669735 14.2482C-0.873916 5.26271 8.68883 -2.84463 18.2394 1.65726C18.3525 3.67541 17.4152 6.54728 14.8433 7.41039C27.6092 15.4699 16.6948 31.9797 3.31633 26.5509C0.875773 25.3062 2.17865 23.0309 4.78817 24.3488C7.70229 25.3536 11.4889 25.3536 13.875 24.0362C15.4323 23.2166 16.7656 22.0286 17.7588 20.5758C18.1144 20.0355 18.4226 19.4655 18.6801 18.8721C18.8824 18.3957 19.5343 16.4315 19.0283 16.217C18.9016 16.164 18.835 16.3142 18.8002 16.455C18.4724 17.7346 17.845 18.918 16.9698 19.9074C15.9151 21.1371 14.5555 22.0676 13.0274 22.6057C11.1195 23.3007 8.90848 23.3885 5.86811 22.7235C6.06899 22.5062 6.47168 21.9017 6.70541 21.6557H6.70823ZM15.5214 2.46452C15.5714 2.75854 15.6003 3.05576 15.6078 3.35391C15.6607 4.00754 15.5607 4.66451 15.3159 5.27285C15.071 5.88118 14.6879 6.4242 14.197 6.85892C13.9825 7.07388 13.7384 7.29728 13.4672 7.52914C17.0726 9.77069 18.9556 14.6729 16.8628 18.0991C14.0383 22.7155 8.44102 21.666 5.38376 18.5051C2.18241 15.1962 2.60669 10.9149 4.90597 7.74175C6.14869 6.10316 7.75354 4.77418 9.59507 3.85871C11.4366 2.94324 13.4649 2.46607 15.5214 2.46452Z" fill="#A5A5A5"/>
<path fill-rule="evenodd" clip-rule="evenodd" d="M4.66321 12.599C5.34938 5.74669 13.2324 4.39031 16.162 13.5222C18.526 22.9089 3.57482 20.8659 4.66321 12.599ZM11.0931 17.1047C17.3184 17.3318 14.3353 10.9653 10.2483 9.55818C6.19748 8.16378 3.94513 17.1042 11.0931 17.1047Z" fill="#070E25"/>
</svg>
