<svg width="105" height="30" viewBox="0 0 105 30" fill="none" xmlns="http://www.w3.org/2000/svg">
<path d="M12.3685 8.70202C9.65971 8.70202 7.43459 9.48317 6.27366 11.1431C6.27366 11.1431 6.27366 10.4596 6.27366 0.5H0.0820312C0.0820312 12.5101 0.0820312 29.0118 0.0820312 29.0118H6.3704V18.3687C6.3704 15.83 7.82157 14.463 10.3369 14.463C12.562 14.463 13.6262 15.7323 13.6262 17.9781C13.6262 17.9781 13.6262 22.1768 13.6262 24.6178C13.6262 28.3283 13.6262 29.0118 13.6262 29.0118H19.8178C19.8178 29.0118 19.8178 27.4495 19.8178 24.6178C19.8178 22.1768 19.8178 17.5875 19.8178 17.5875C19.8178 11.9242 16.722 8.70202 12.3685 8.70202ZM32.6848 8.70202C26.5899 8.70202 21.8495 12.9983 21.8495 19.1498C21.8495 25.2037 26.5899 29.5 32.6848 29.5C38.7797 29.5 43.5202 25.2037 43.5202 19.1498C43.5202 13.096 38.7797 8.70202 32.6848 8.70202ZM32.6848 24.1296C29.8792 24.1296 28.2346 22.0791 28.2346 19.1498C28.2346 16.1229 29.976 14.17 32.6848 14.17C35.4904 14.17 37.1351 16.2205 37.1351 19.1498C37.1351 22.0791 35.4904 24.1296 32.6848 24.1296ZM67.9965 9.19024C67.9965 9.19024 64.9006 9.19024 62.7723 9.19024C60.6439 9.19024 58.0318 10.4596 56.7741 13.5842L56.0002 15.0488C55.1295 17.0993 54.4523 18.4663 54.4523 18.4663L54.2588 19.3451L53.9685 18.4663C53.9685 18.4663 53.2913 17.0017 52.4206 15.0488L51.7434 13.4865C50.4857 10.362 47.7769 9.09259 45.7453 9.09259C43.6169 9.09259 40.5211 9.09259 40.5211 9.09259C40.5211 9.09259 42.6495 9.67845 44.8746 13.4865C47.0997 17.197 53.1946 29.4024 53.1946 29.4024H55.4197C55.4197 29.4024 61.5146 17.197 63.7397 13.4865C65.8681 9.77609 67.9965 9.19024 67.9965 9.19024ZM76.123 8.70202C70.0281 8.70202 65.2876 12.9983 65.2876 19.0522C65.2876 25.2037 69.8346 29.5 76.8969 29.5C81.0569 29.5 83.3788 28.2306 85.3137 26.5707L81.7341 22.665C80.7667 23.3485 79.0253 24.2273 76.8002 24.2273C73.9946 24.2273 72.3499 23.0556 71.6727 21.0051H86.6681C86.9583 14.0724 83.1853 8.70202 76.123 8.70202ZM71.6727 17.197C72.1564 14.8535 73.8011 13.6818 76.3165 13.6818C78.7351 13.6818 80.1862 14.9512 80.4765 17.197H71.6727ZM100.793 8.70202C98.7611 8.70202 96.4392 9.38552 95.2783 11.5337V9.09259H88.9899C88.9899 9.09259 88.9899 10.2643 88.9899 13.3889C88.9899 16.5135 88.9899 28.9141 88.9899 28.9141H95.2783V20.1263C95.2783 15.9276 96.8262 14.5606 99.6318 14.5606C100.502 14.5606 101.276 14.7559 102.05 15.1465L104.082 9.38552C103.308 9.09259 102.147 8.70202 100.793 8.70202Z" fill="#070E25"/>
</svg>
