<svg width="131" height="78" viewBox="0 0 131 78" fill="none" xmlns="http://www.w3.org/2000/svg">
<path fill-rule="evenodd" clip-rule="evenodd" d="M48.3555 26.1L66.9996 7.45627C68.2662 6.18967 69.9522 5.49231 71.7487 5.49231C73.5436 5.49231 75.2293 6.18901 76.4949 7.45462L77.9477 8.90778L80.853 6.00212L79.4002 4.54896C77.36 2.50906 74.6425 1.38477 71.7474 1.38477C68.8533 1.3851 66.1355 2.50972 64.0943 4.55061L45.4502 23.1947L48.3555 26.1Z" fill="#070E25"/>
<path fill-rule="evenodd" clip-rule="evenodd" d="M73.245 13.6125L70.3397 10.7072L51.6956 29.351C49.0775 31.9694 44.8177 31.97 42.2006 29.3526C39.5826 26.7339 39.5826 22.4741 42.2006 19.8557L58.2874 3.76894L55.3821 0.863281L39.295 16.9501C35.0748 21.1705 35.0748 28.0378 39.295 32.2583C41.3359 34.2982 44.0533 35.4225 46.9468 35.4225C49.8415 35.4225 52.56 34.2979 54.6012 32.2566L73.245 13.6125Z" fill="#070E25"/>
<path fill-rule="evenodd" clip-rule="evenodd" d="M91.8064 16.9503C89.7659 14.9101 87.0484 13.7861 84.1533 13.7861C81.2589 13.7865 78.5408 14.9108 76.5002 16.952L57.8564 35.5958L60.7618 38.5014L79.4055 19.8573C82.0243 17.2389 86.2837 17.2392 88.9008 19.856C90.1671 21.1219 90.8644 22.8082 90.8644 24.6041C90.8644 26.4003 90.1671 28.0869 88.9008 29.3529L72.8137 45.4397L75.719 48.345L91.8064 32.2582C96.0266 28.0381 96.0266 21.1705 91.8064 16.9503Z" fill="#070E25"/>
<path fill-rule="evenodd" clip-rule="evenodd" d="M82.7449 23.1074L64.1008 41.7512C61.4821 44.3693 57.223 44.3699 54.6052 41.7528L53.1527 40.2997L50.2471 43.2053L51.6999 44.6578C53.7401 46.6984 56.4576 47.8227 59.353 47.8227C62.2471 47.8224 64.9649 46.6978 67.0061 44.6569L85.6502 26.0131L82.7449 23.1074Z" fill="#070E25"/>
<path fill-rule="evenodd" clip-rule="evenodd" d="M2.94949 72.7014C3.06968 73.2915 3.351 73.7534 3.79345 74.0862C4.2359 74.4197 4.8177 74.5861 5.53883 74.5861C6.24906 74.5861 6.79784 74.4224 7.18581 74.0945C7.57345 73.7669 7.7676 73.3354 7.7676 72.7998C7.7676 72.5376 7.71576 72.3164 7.61208 72.1361C7.50807 71.9559 7.36345 71.803 7.17755 71.6772C6.99166 71.552 6.76218 71.4451 6.48944 71.3579C6.21604 71.2704 5.90996 71.1776 5.57152 71.0792L4.68661 70.8335C4.16227 70.6916 3.69241 70.5195 3.27737 70.3171C2.86199 70.1151 2.50704 69.8773 2.21218 69.6043C1.91732 69.3312 1.69312 69.0172 1.54024 68.6619C1.38703 68.3069 1.31076 67.8942 1.31076 67.4247C1.31076 66.933 1.40916 66.4797 1.60562 66.0643C1.80241 65.6496 2.08109 65.294 2.44133 64.9991C2.80222 64.7042 3.23873 64.4721 3.75251 64.3024C4.26595 64.1337 4.84477 64.0488 5.48963 64.0488C6.70241 64.0488 7.66359 64.3354 8.37383 64.909C9.08406 65.4828 9.49911 66.2502 9.61963 67.2117L7.65303 67.3755C7.53251 66.8838 7.29246 66.5015 6.93189 66.2284C6.57133 65.9553 6.06878 65.8186 5.42425 65.8186C4.82298 65.8186 4.35312 65.958 4.01468 66.2367C3.6759 66.5153 3.50652 66.8733 3.50652 67.3101C3.50652 67.5614 3.55571 67.7714 3.65411 67.9408C3.75251 68.1105 3.89449 68.2577 4.08038 68.3832C4.26595 68.509 4.49246 68.621 4.76024 68.719C5.02803 68.8174 5.33114 68.9218 5.66991 69.0307L6.50595 69.2929C7.02996 69.4567 7.50279 69.6287 7.92312 69.809C8.34378 69.9893 8.7017 70.2052 8.99656 70.4565C9.29175 70.7077 9.51826 71.0082 9.67675 71.3579C9.83524 71.7076 9.91449 72.1391 9.91449 72.6526C9.91449 73.199 9.8052 73.6989 9.58661 74.1519C9.36803 74.6056 9.06227 74.9906 8.66902 75.3073C8.27576 75.6243 7.80854 75.8702 7.2677 76.0446C6.72685 76.2193 6.12887 76.3071 5.47345 76.3071C4.26067 76.3071 3.24996 76.0231 2.44133 75.4549C1.63303 74.8866 1.13576 74.0291 0.950195 72.8817L2.94949 72.7014Z" fill="#070E25"/>
<path fill-rule="evenodd" clip-rule="evenodd" d="M18.2701 65.8518C17.6801 65.8518 17.1531 65.9611 16.6885 66.1791C16.2243 66.3973 15.831 66.6998 15.5087 67.0868C15.1865 67.4741 14.9405 67.9324 14.7711 68.4607C14.6017 68.99 14.5172 69.5651 14.5172 70.1866C14.5172 70.8083 14.6047 71.3861 14.7794 71.9207C14.954 72.455 15.2027 72.9182 15.5253 73.3111C15.8472 73.7034 16.2408 74.0115 16.705 74.2353C17.1693 74.4585 17.6966 74.5701 18.2866 74.5701C18.8763 74.5701 19.4037 74.4642 19.8679 74.2515C20.3321 74.0389 20.7257 73.7417 21.048 73.3597C21.3699 72.9783 21.6186 72.5174 21.7936 71.9778C21.9682 71.438 22.0557 70.8463 22.0557 70.2031C22.0557 69.5704 21.9682 68.987 21.7936 68.4527C21.6186 67.9188 21.3699 67.4605 21.048 67.0788C20.7257 66.6975 20.3295 66.3973 19.8596 66.1791C19.3898 65.9611 18.8602 65.8518 18.2701 65.8518ZM18.2866 64.082C19.1715 64.082 19.9798 64.2323 20.7119 64.5327C21.4439 64.8332 22.0666 65.2535 22.5801 65.7944C23.0935 66.3356 23.492 66.9827 23.7763 67.7366C24.0606 68.4904 24.2026 69.3152 24.2026 70.211C24.2026 71.1401 24.0524 71.9785 23.7519 72.7267C23.4511 73.4752 23.0228 74.1224 22.4655 74.6685L24.0388 76.5206V77.0941H22.0395L20.9413 75.7506C20.559 75.9252 20.1489 76.0616 19.7124 76.16C19.2752 76.2584 18.8053 76.3076 18.3028 76.3076C17.3961 76.3076 16.5792 76.157 15.8528 75.8569C15.1264 75.5564 14.5089 75.1358 14.0011 74.5949C13.4929 74.0541 13.0997 73.4099 12.8213 72.661C12.5427 71.9128 12.4033 71.0962 12.4033 70.211C12.4033 69.3152 12.5427 68.4934 12.8213 67.7445C13.0997 66.9966 13.4956 66.3518 14.0094 65.8109C14.5225 65.2701 15.1426 64.8468 15.8693 64.5407C16.5957 64.2352 17.4017 64.082 18.2866 64.082Z" fill="#070E25"/>
<path fill-rule="evenodd" clip-rule="evenodd" d="M32.022 74.652C32.8634 74.652 33.5188 74.3928 33.9886 73.8738C34.4582 73.3547 34.6933 72.56 34.6933 71.4892V64.3115H36.7583V71.5384C36.7583 72.3906 36.649 73.1196 36.4304 73.7262C36.2118 74.3324 35.9004 74.8297 35.4963 75.2177C35.0921 75.6056 34.5949 75.8896 34.0051 76.0699C33.4151 76.2502 32.7541 76.34 32.022 76.34C31.2791 76.34 30.6154 76.2502 30.031 76.0699C29.4462 75.8896 28.9519 75.6056 28.5478 75.2177C28.1436 74.8297 27.8323 74.3324 27.6137 73.7262C27.3951 73.1196 27.2861 72.3906 27.2861 71.5384V64.3115H29.3508V71.4892C29.3508 72.56 29.5856 73.3547 30.0554 73.8738C30.5253 74.3928 31.1807 74.652 32.022 74.652Z" fill="#070E25"/>
<path fill-rule="evenodd" clip-rule="evenodd" d="M42.6079 70.9486H46.4916L45.8527 69.0804C45.6011 68.3487 45.3993 67.7531 45.2465 67.2944C45.0933 66.8355 44.9566 66.4313 44.8364 66.0817H44.3285C44.2628 66.2672 44.1975 66.4531 44.1321 66.6387C44.0664 66.8246 43.9927 67.0323 43.9109 67.2614C43.8286 67.4909 43.7385 67.7531 43.6401 68.0483C43.542 68.3428 43.4215 68.6872 43.2799 69.0804L42.6079 70.9486ZM38.8877 75.5046L43.0669 64.3115H46.1641L50.2937 75.5046V76.0781H48.2617L47.0817 72.7185H41.9852L40.8054 76.0781H38.8877V75.5046Z" fill="#070E25"/>
<path fill-rule="evenodd" clip-rule="evenodd" d="M54.9353 69.6867H56.7216C57.5085 69.6867 58.1282 69.543 58.5816 69.2564C59.0349 68.9695 59.2621 68.5013 59.2621 67.8511C59.2621 67.1908 59.0323 66.7308 58.5733 66.471C58.1147 66.2114 57.4976 66.0813 56.7216 66.0813H54.9353V69.6867ZM61.8346 76.0778H59.8515L56.2627 71.4565H54.9353V76.0778H52.9033V64.3115H56.7216C57.3222 64.3115 57.8935 64.3525 58.434 64.4344C58.9748 64.5162 59.4638 64.7048 59.901 64.9996C60.8292 65.6111 61.2941 66.5344 61.2941 67.7683C61.2941 68.3038 61.2148 68.7707 61.056 69.1696C60.8975 69.5681 60.6872 69.9066 60.4254 70.1852C60.1629 70.4639 59.8597 70.6904 59.516 70.8648C59.1716 71.0398 58.8137 71.1709 58.4422 71.258L61.8346 75.5039V76.0778Z" fill="#070E25"/>
<path fill-rule="evenodd" clip-rule="evenodd" d="M64.4189 64.3115H72.0394V66.114H66.4347V69.195H71.6461V70.9648H66.4347V74.2753H72.1543V76.0781H64.4189V64.3115Z" fill="#070E25"/>
<path fill-rule="evenodd" clip-rule="evenodd" d="M76.7467 72.7014C76.8666 73.2915 77.1482 73.7534 77.5907 74.0862C78.0331 74.4197 78.6149 74.5861 79.336 74.5861C80.0459 74.5861 80.5947 74.4224 80.983 74.0945C81.3707 73.7669 81.5648 73.3354 81.5648 72.7998C81.5648 72.5376 81.513 72.3164 81.409 72.1361C81.3053 71.9559 81.1603 71.803 80.9748 71.6772C80.7889 71.552 80.5594 71.4451 80.2866 71.3579C80.0133 71.2704 79.7072 71.1776 79.3684 71.0792L78.4838 70.8335C77.9595 70.6916 77.4893 70.5195 77.0742 70.3171C76.6589 70.1151 76.3039 69.8773 76.0094 69.6043C75.7142 69.3312 75.49 69.0172 75.3371 68.6619C75.1842 68.3069 75.1076 67.8942 75.1076 67.4247C75.1076 66.933 75.206 66.4797 75.4028 66.0643C75.5993 65.6496 75.878 65.294 76.2385 64.9991C76.5991 64.7042 77.0359 64.4721 77.5497 64.3024C78.0628 64.1337 78.642 64.0488 79.2865 64.0488C80.4993 64.0488 81.4605 64.3354 82.171 64.909C82.8809 65.4828 83.2963 66.2502 83.4165 67.2117L81.4499 67.3755C81.3297 66.8838 81.0893 66.5015 80.7291 66.2284C80.3685 65.9553 79.8657 65.8186 79.2211 65.8186C78.6202 65.8186 78.1503 65.958 77.8119 66.2367C77.4731 66.5153 77.3037 66.8733 77.3037 67.3101C77.3037 67.5614 77.3529 67.7714 77.4513 67.9408C77.5497 68.1105 77.6914 68.2577 77.8773 68.3832C78.0628 68.509 78.2897 68.621 78.5575 68.719C78.8252 68.8174 79.1283 68.9218 79.4668 69.0307L80.3028 69.2929C80.8272 69.4567 81.2997 69.6287 81.7203 69.809C82.1407 69.9893 82.4989 70.2052 82.7934 70.4565C83.0886 70.7077 83.3155 71.0082 83.474 71.3579C83.6321 71.7076 83.7117 72.1391 83.7117 72.6526C83.7117 73.199 83.6024 73.6989 83.3838 74.1519C83.1649 74.6056 82.8595 74.9906 82.4659 75.3073C82.0726 75.6243 81.6058 75.8702 81.0649 76.0446C80.5237 76.2193 79.9258 76.3071 79.2703 76.3071C78.0579 76.3071 77.0468 76.0231 76.2385 75.4549C75.4299 74.8866 74.933 74.0291 74.7471 72.8817L76.7467 72.7014Z" fill="#070E25"/>
<path fill-rule="evenodd" clip-rule="evenodd" d="M88.7409 69.7851H90.7075C91.068 69.7851 91.3986 69.7553 91.699 69.6956C91.9992 69.6361 92.2617 69.5361 92.4855 69.3951C92.7097 69.2544 92.8844 69.0649 93.0102 68.8265C93.1357 68.5885 93.1984 68.2959 93.1984 67.9492C93.1984 67.5919 93.1357 67.2918 93.0102 67.0481C92.8844 66.8045 92.7121 66.6123 92.4938 66.4713C92.2752 66.3303 92.0157 66.2302 91.7155 66.1708C91.4147 66.1114 91.0898 66.0813 90.7405 66.0813H88.7409V69.7851ZM86.6924 64.3115H90.9862C91.7836 64.3115 92.4528 64.4043 92.9937 64.5902C93.5345 64.7758 93.9714 65.0323 94.3049 65.3605C94.6377 65.6881 94.8784 66.0731 95.0257 66.5159C95.173 66.958 95.2469 67.4361 95.2469 67.9495C95.2469 68.5617 95.1459 69.094 94.9438 69.5473C94.7417 70.0007 94.4495 70.3748 94.0671 70.67C93.6845 70.9648 93.2202 71.1861 92.6741 71.3336C92.1276 71.4812 91.5105 71.5549 90.8224 71.5549H88.7409V76.0781H86.6924V64.3115Z" fill="#070E25"/>
<path fill-rule="evenodd" clip-rule="evenodd" d="M99.5064 70.9486H103.39L102.751 69.0804C102.5 68.3487 102.297 67.7531 102.145 67.2944C101.992 66.8355 101.855 66.4313 101.735 66.0817H101.227C101.162 66.2672 101.096 66.4531 101.03 66.6387C100.965 66.8246 100.891 67.0323 100.809 67.2614C100.727 67.4909 100.637 67.7531 100.539 68.0483C100.44 68.3428 100.32 68.6872 100.178 69.0804L99.5064 70.9486ZM95.7861 75.5046L99.9653 64.3115H103.063L107.192 75.5046V76.0781H105.16L103.98 72.7185H98.8836L97.7035 76.0781H95.7861V75.5046Z" fill="#070E25"/>
<path fill-rule="evenodd" clip-rule="evenodd" d="M119.649 72.9644C119.463 73.4234 119.22 73.8553 118.92 74.2604C118.619 74.6656 118.256 75.0205 117.83 75.3236C117.404 75.6267 116.909 75.8665 116.346 76.0428C115.784 76.2191 115.158 76.3076 114.47 76.3076C113.596 76.3076 112.801 76.1544 112.086 75.8483C111.37 75.5429 110.759 75.1193 110.254 74.5787C109.748 74.0376 109.357 73.3934 109.082 72.6448C108.806 71.8966 108.669 71.0853 108.669 70.211C108.669 69.3373 108.806 68.526 109.082 67.7775C109.357 67.0293 109.75 66.3818 110.261 65.8353C110.773 65.2895 111.387 64.8603 112.102 64.5493C112.818 64.2376 113.618 64.082 114.503 64.082C115.792 64.082 116.871 64.3828 117.74 64.9834C118.608 65.5841 119.223 66.3818 119.583 67.376L117.502 67.7854C117.218 67.1848 116.822 66.712 116.314 66.3679C115.806 66.0239 115.191 65.8518 114.47 65.8518C113.891 65.8518 113.375 65.9634 112.921 66.1867C112.468 66.4099 112.086 66.7173 111.774 67.1092C111.463 67.5008 111.225 67.9634 111.061 68.497C110.898 69.0302 110.816 69.6015 110.816 70.211C110.816 70.8314 110.9 71.4056 111.07 71.9336C111.239 72.4619 111.485 72.9185 111.807 73.3052C112.129 73.6915 112.52 73.9933 112.979 74.2109C113.438 74.4288 113.962 74.5378 114.552 74.5378C115.317 74.5378 115.948 74.3519 116.445 73.9804C116.942 73.609 117.327 73.1556 117.6 72.6201L119.649 72.9644Z" fill="#070E25"/>
<path fill-rule="evenodd" clip-rule="evenodd" d="M122.419 64.3115H130.039V66.114H124.435V69.195H129.646V70.9648H124.435V74.2753H130.154V76.0781H122.419V64.3115Z" fill="#070E25"/>
</svg>
