<svg width="65" height="42" viewBox="0 0 65 42" fill="none" xmlns="http://www.w3.org/2000/svg">
<path fill-rule="evenodd" clip-rule="evenodd" d="M42.7996 33.4965L42.797 33.4984H38.8928L38.8909 33.4965V0.00271763L38.8935 0.00012207H42.7977L42.7996 0.00206874V33.4965Z" fill="#141B21"/>
<path fill-rule="evenodd" clip-rule="evenodd" d="M36.0119 17.4652C35.9561 14.7684 35.1422 12.6673 33.5903 11.217C32.1478 9.86862 30.1811 9.18469 27.746 9.18469C25.3108 9.18469 23.3454 9.86862 21.9023 11.217C20.3471 12.6673 19.5364 14.7684 19.4807 17.4652H19.4768V25.5951H19.4807C19.5364 28.2919 20.3503 30.3937 21.9023 31.844C23.3454 33.1923 25.3108 33.873 27.746 33.873C30.1811 33.873 32.1478 33.1898 33.5903 31.8414C35.1422 30.3911 35.9561 28.2893 36.0119 25.5925V17.4652ZM32.1064 25.2941C32.1064 28.5216 30.7618 29.9615 27.746 29.9615C24.7302 29.9615 23.3862 28.5216 23.3862 25.2941V17.7669C23.3862 14.5393 24.7308 13.1001 27.746 13.1001C30.7611 13.1001 32.1064 14.5361 32.1064 17.7663V25.2941Z" fill="#141B21"/>
<path fill-rule="evenodd" clip-rule="evenodd" d="M12.7314 9.70911V25.2916C12.7314 28.5191 11.3861 29.959 8.37096 29.959C5.3558 29.959 4.01055 28.5191 4.01055 25.2916V9.71105H0.101807V25.5927H0.105047C0.161423 28.2894 0.975313 30.3912 2.52663 31.8415C3.96973 33.1899 5.93382 33.8706 8.37096 33.8706C10.1322 33.8706 11.7211 33.0919 12.9854 31.9382L12.7333 31.9174V33.4189C12.7333 36.6465 11.3881 38.2369 8.3729 38.2369C5.55539 38.2369 4.50239 36.943 4.25096 36.42H4.24643L1.07122 38.4193C1.55722 39.4309 3.93992 41.9999 8.3729 41.9999C10.8081 41.9999 12.7741 41.3166 14.2172 39.9682C15.7685 38.5179 16.5824 36.4161 16.6388 33.7194H16.642V9.70911H12.7314Z" fill="#141B21"/>
<path fill-rule="evenodd" clip-rule="evenodd" d="M62.6458 25.2941V17.4652H62.6419C62.5861 14.7684 61.7722 12.6673 60.2203 11.217C58.7778 9.86862 56.8118 9.18469 54.3766 9.18469V9.19378C49.9443 9.19378 47.5622 11.7517 47.0756 12.7627V12.7659L50.2508 14.7652H50.2553C50.2903 14.6873 51.1074 13.0248 54.3773 13.0248C57.3924 13.0248 58.737 14.5393 58.737 17.7669V18.0492C57.5745 17.2439 56.1288 16.7131 54.3753 16.7131H53.774C51.3388 16.7131 49.3721 17.3971 47.9296 18.7448C46.3744 20.1957 45.5638 22.2968 45.5081 24.9936V25.5958C45.5638 28.2926 46.3777 30.3943 47.9296 31.8446C49.3734 33.1923 51.3401 33.873 53.7753 33.873H54.3766C56.8124 33.873 58.6631 32.8387 59.9799 31.4754C59.9799 31.4786 59.9572 31.4754 59.9591 31.4754C60.13 31.7362 60.3267 31.979 60.5462 32.2002C61.9971 33.6576 63.7992 33.873 64.8963 33.873L64.9008 33.8685V29.9635C62.9834 29.9602 62.6458 28.7176 62.6458 25.2941ZM54.3766 29.9615H53.7753C50.7595 29.9615 49.4149 28.5216 49.4149 25.2941C49.4149 22.0665 50.7595 20.6272 53.7753 20.6272H54.3766C57.3918 20.6272 58.7364 22.0665 58.7364 25.2941C58.7364 28.5216 57.3918 29.9615 54.3766 29.9615Z" fill="#141B21"/>
</svg>
