<svg width="85" height="34" viewBox="0 0 85 34" fill="none" xmlns="http://www.w3.org/2000/svg">
<path d="M21.4971 33.4973L3.36314 33.4537C2.13949 33.2225 1.22807 32.419 0.93271 31.3181C0.461533 29.5575 1.74848 28.114 2.55722 27.412C3.0073 27.0216 3.43909 26.6311 3.86948 26.2435C4.41098 25.7543 4.95248 25.268 5.52352 24.7803C8.2165 22.4779 10.9146 20.1802 13.6179 17.8873C14.0117 17.5532 14.4154 17.2233 14.8205 16.9005C15.637 16.2605 16.4205 15.5792 17.1679 14.8594C18.4113 13.6133 19.137 11.7794 19.0611 10.0667C19.0217 9.16737 18.7305 7.89308 17.5772 6.92467C15.8529 5.4784 13.9499 5.31207 12.646 5.43471C10.2395 5.65743 7.81752 6.98106 6.17614 8.97707C5.76581 9.47561 5.17468 9.79036 4.5328 9.85208C3.89091 9.91381 3.25085 9.71746 2.75342 9.30622C2.25599 8.89498 1.94194 8.30254 1.88035 7.65924C1.81876 7.01593 2.01468 6.37445 2.42501 5.87592C4.87935 2.8974 8.53484 0.921115 12.2058 0.584217C15.3831 0.291017 18.317 1.19317 20.6968 3.18919C22.6561 4.8328 23.7996 7.19955 23.9177 9.85244C24.0584 12.9268 22.8164 16.0858 20.6054 18.3003C19.7404 19.1392 18.8325 19.9325 17.8852 20.6769C17.5069 20.9842 17.1285 21.2915 16.76 21.6044C14.0643 23.8993 11.3703 26.1937 8.6783 28.4876L8.51937 28.6285H21.4985C22.1431 28.6285 22.7613 28.8852 23.2171 29.342C23.6729 29.7988 23.929 30.4183 23.929 31.0644C23.929 31.7104 23.6729 32.3299 23.2171 32.7867C22.7613 33.2435 22.1431 33.5002 21.4985 33.5002L21.4971 33.4973Z" fill="#13110C"/>
<path d="M66.5703 5.41451C67.9189 5.41451 69.012 4.31891 69.012 2.96742C69.012 1.61593 67.9189 0.520325 66.5703 0.520325C65.2218 0.520325 64.1287 1.61593 64.1287 2.96742C64.1287 4.31891 65.2218 5.41451 66.5703 5.41451Z" fill="#13110C"/>
<path d="M47.7015 33.4832C47.1132 33.4836 46.5446 33.2701 46.1014 32.8823C45.6582 32.4946 45.3703 31.9588 45.2913 31.3745C45.2123 30.7902 45.3474 30.197 45.6717 29.7049C45.996 29.2129 46.4873 28.8555 47.0545 28.6989C49.601 27.9891 51.8454 26.4629 53.4444 24.3537C55.0435 22.2446 55.9092 19.6685 55.9092 17.0195C55.9092 14.3706 55.0435 11.7945 53.4444 9.68536C51.8454 7.57618 49.601 6.04998 47.0545 5.34017C46.7469 5.25483 46.4591 5.1096 46.2074 4.91278C45.9558 4.71595 45.7453 4.47138 45.588 4.19303C45.4307 3.91469 45.3296 3.60801 45.2906 3.29051C45.2515 2.97302 45.2753 2.65092 45.3604 2.34262C45.4456 2.03431 45.5905 1.74583 45.7868 1.49365C45.9832 1.24147 46.2273 1.03052 46.505 0.872862C46.7827 0.715199 47.0887 0.613904 47.4055 0.574762C47.7223 0.535619 48.0437 0.559396 48.3513 0.644733C51.9246 1.63626 55.0751 3.77454 57.32 6.73197C59.5648 9.6894 60.7804 13.3029 60.7804 17.0188C60.7804 20.7348 59.5648 24.3483 57.32 27.3057C55.0751 30.2631 51.9246 32.4014 48.3513 33.3929C48.1398 33.4524 47.9212 33.4827 47.7015 33.4832Z" fill="#070E25"/>
<path d="M39.9263 33.4818C39.7067 33.4818 39.4881 33.4519 39.2765 33.393C35.7032 32.4014 32.5528 30.2631 30.3079 27.3057C28.063 24.3483 26.8474 20.7348 26.8474 17.0188C26.8474 13.3029 28.063 9.6894 30.3079 6.73197C32.5528 3.77454 35.7032 1.63627 39.2765 0.644738C39.8978 0.472392 40.5619 0.554452 41.1228 0.872867C41.6837 1.19128 42.0954 1.71997 42.2674 2.34262C42.4394 2.96527 42.3575 3.63089 42.0398 4.19304C41.7221 4.75519 41.1946 5.16782 40.5733 5.34017C38.0268 6.04998 35.7825 7.57618 34.1834 9.68536C32.5843 11.7945 31.7186 14.3706 31.7186 17.0195C31.7186 19.6685 32.5843 22.2446 34.1834 24.3537C35.7825 26.4629 38.0268 27.9891 40.5733 28.6989C41.1405 28.8555 41.6319 29.2129 41.9561 29.7049C42.2804 30.197 42.4155 30.7902 42.3365 31.3745C42.2575 31.9588 41.9697 32.4946 41.5264 32.8823C41.0832 33.2701 40.5146 33.4836 39.9263 33.4832V33.4818Z" fill="#070E25"/>
<path d="M66.5825 33.4814C66.2634 33.4814 65.9473 33.4184 65.6524 33.2959C65.3576 33.1735 65.0896 32.9941 64.864 32.7679C64.6383 32.5417 64.4592 32.2732 64.3371 31.9777C64.215 31.6822 64.1521 31.3654 64.1521 31.0455V13.1251C64.1521 12.4791 64.4082 11.8595 64.864 11.4027C65.3197 10.9459 65.9379 10.6893 66.5825 10.6893C67.2271 10.6893 67.8453 10.9459 68.3011 11.4027C68.7569 11.8595 69.013 12.4791 69.013 13.1251V31.0455C69.013 31.6916 68.7569 32.3111 68.3011 32.7679C67.8453 33.2247 67.2271 33.4814 66.5825 33.4814Z" fill="#13110C"/>
<path d="M77.3203 1.45695V5.45321H76.2444V1.45695H74.8787V0.499817H78.6861V1.45695H77.3203Z" fill="#13110C"/>
<path d="M83.4232 2.33514L82.1193 5.04442H81.478L80.1812 2.33514V5.45321H79.1052V0.499817H80.5609L81.8029 3.2232L83.0505 0.499817H84.4991V5.45321H83.4232V2.33514Z" fill="#13110C"/>
</svg>
