<svg width="116" height="33" viewBox="0 0 116 33" fill="none" xmlns="http://www.w3.org/2000/svg">
<path d="M39.8039 18.3045C38.8245 17.7633 38.309 17.3251 38.309 16.7066C38.309 15.9076 39.0049 15.4179 40.1131 15.4179C41.4018 15.4179 42.5358 15.9592 42.5358 15.9592L43.4379 13.2015C43.4379 13.2015 42.6131 12.5571 40.1647 12.5571C36.7627 12.5571 34.3915 14.5159 34.3915 17.2478C34.3915 18.7942 35.4998 19.9797 36.9688 20.8302C38.1544 21.5003 38.5668 21.99 38.5668 22.6859C38.5668 23.4333 37.974 24.0261 36.8658 24.0261C35.2163 24.0261 33.6699 23.1756 33.6699 23.1756L32.7163 25.9333C32.7163 25.9333 34.1596 26.8869 36.5565 26.8869C40.0616 26.8869 42.5616 25.1601 42.5616 22.0674C42.6131 20.3663 41.3245 19.1808 39.8039 18.3045Z" fill="#070E25"/>
<path d="M53.7747 12.5064C52.0479 12.5064 50.7077 13.3312 49.651 14.5683L49.5995 14.5425L51.0943 6.70752H47.1768L43.3882 26.63H47.2799L48.5685 19.826C49.084 17.2487 50.3984 15.6765 51.6355 15.6765C52.5118 15.6765 52.8469 16.2693 52.8469 17.1198C52.8469 17.661 52.7953 18.3053 52.6664 18.8466L51.1974 26.6558H55.0891L56.6097 18.6146C56.7901 17.7641 56.8932 16.759 56.8932 16.0631C56.9448 13.8209 55.8108 12.5064 53.7747 12.5064Z" fill="#070E25"/>
<path d="M65.7521 12.5063C61.0614 12.5063 57.9429 16.7331 57.9429 21.4496C57.9429 24.465 59.7985 26.9134 63.3036 26.9134C67.917 26.9134 71.0098 22.7898 71.0098 17.9702C71.0355 15.161 69.4118 12.5063 65.7521 12.5063ZM63.8449 23.898C62.5047 23.898 61.9634 22.764 61.9634 21.3465C61.9634 19.1042 63.1232 15.4702 65.2366 15.4702C66.6284 15.4702 67.0665 16.6558 67.0665 17.8156C67.0665 20.2382 65.9067 23.898 63.8449 23.898Z" fill="#070E25"/>
<path d="M81.0167 12.5063C78.3879 12.5063 76.893 14.8259 76.893 14.8259H76.8415L77.0734 12.7383H73.6199C73.4395 14.1558 73.1302 16.295 72.8209 17.9187L70.1147 32.1453H74.0065L75.0889 26.3722H75.1662C75.1662 26.3722 75.9652 26.8877 77.46 26.8877C82.0476 26.8877 85.0373 22.197 85.0373 17.4548C85.0373 14.8517 83.8775 12.5063 81.0167 12.5063ZM77.3054 23.9753C76.3003 23.9753 75.7075 23.4083 75.7075 23.4083L76.3518 19.7743C76.8157 17.3517 78.0786 15.728 79.4188 15.728C80.6043 15.728 80.9652 16.8362 80.9652 17.8671C80.9652 20.3671 79.4703 23.9753 77.3054 23.9753Z" fill="#070E25"/>
<path d="M90.607 6.91357C89.3699 6.91357 88.3647 7.89295 88.3647 9.18159C88.3647 10.3414 89.0864 11.1403 90.1946 11.1403H90.2462C91.4575 11.1403 92.5142 10.3156 92.54 8.87232C92.5657 7.71254 91.7926 6.91357 90.607 6.91357Z" fill="#070E25"/>
<path d="M85.1382 26.6292H89.0557L91.7103 12.8149H87.767L85.1382 26.6292Z" fill="#070E25"/>
<path d="M101.602 12.7899H98.8963L99.0251 12.1455C99.2571 10.8053 100.03 9.61978 101.345 9.61978C102.041 9.61978 102.582 9.82596 102.582 9.82596L103.355 6.78476C103.355 6.78476 102.685 6.44971 101.242 6.44971C99.8499 6.44971 98.4839 6.8363 97.4272 7.73835C96.087 8.87236 95.4685 10.4961 95.1592 12.1455L95.0561 12.7899H93.252L92.685 15.728H94.4891L92.4272 26.6299H96.319L98.3808 15.728H101.061L101.602 12.7899Z" fill="#070E25"/>
<path d="M110.988 12.8149C110.988 12.8149 108.539 18.9489 107.457 22.2994H107.405C107.328 21.2169 106.452 12.8149 106.452 12.8149H102.354L104.699 25.4952C104.751 25.7787 104.725 25.9592 104.622 26.1396C104.158 27.0158 103.411 27.8663 102.509 28.4849C101.787 29.0261 100.962 29.3612 100.318 29.5931L101.4 32.8921C102.199 32.7117 103.823 32.0673 105.215 30.7787C106.993 29.1035 108.643 26.5519 110.318 23.0468L115.086 12.8149H110.988Z" fill="#070E25"/>
<path d="M19.2843 3.84674C19.2843 3.84674 18.9235 3.94984 18.3307 4.13025C18.2277 3.7952 18.073 3.4086 17.8668 2.99624C17.1967 1.70759 16.1916 1.01172 15.006 1.01172C14.9287 1.01172 14.8514 1.01172 14.7483 1.03749C14.7225 0.985946 14.671 0.960173 14.6452 0.908627C14.1298 0.341622 13.4597 0.083892 12.6607 0.109665C11.1143 0.161211 9.56794 1.26945 8.33084 3.25397C7.45456 4.64571 6.78446 6.39827 6.60405 7.76423C4.82572 8.30546 3.58862 8.69206 3.56285 8.71783C2.66079 9.00134 2.63502 9.02711 2.53193 9.87762C2.45461 10.5219 0.0834961 28.6661 0.0834961 28.6661L19.5679 32.0424V3.82097C19.4132 3.82097 19.3359 3.84674 19.2843 3.84674ZM14.7741 5.23848C13.7432 5.54776 12.6092 5.90858 11.5009 6.24363C11.8102 5.0323 12.4287 3.82097 13.1504 3.02201C13.4339 2.73851 13.8205 2.40346 14.2586 2.19727C14.6968 3.1251 14.7999 4.38798 14.7741 5.23848ZM12.6607 1.16636C13.0215 1.16636 13.3308 1.24368 13.5885 1.39831C13.1762 1.6045 12.7638 1.93954 12.3772 2.32614C11.3978 3.38283 10.6504 5.0323 10.3411 6.60445C9.41331 6.88795 8.48548 7.17145 7.63497 7.42918C8.20198 4.95498 10.2896 1.2179 12.6607 1.16636ZM9.67104 15.3415C9.77413 16.991 14.1298 17.3518 14.3875 21.2435C14.5679 24.3105 12.7638 26.3981 10.1607 26.5527C7.01642 26.7589 5.28963 24.9032 5.28963 24.9032L5.95973 22.0682C5.95973 22.0682 7.68652 23.3826 9.07826 23.2796C9.98031 23.228 10.3154 22.4806 10.2896 21.9651C10.1607 19.8002 6.60405 19.9291 6.3721 16.3724C6.16591 13.3827 8.12466 10.3673 12.4545 10.0838C14.1298 9.98071 14.9803 10.3931 14.9803 10.3931L14.0009 14.1044C14.0009 14.1044 12.8927 13.5889 11.5782 13.692C9.67104 13.8209 9.64526 15.0322 9.67104 15.3415ZM15.805 4.92921C15.805 4.15602 15.7019 3.04778 15.3411 2.11996C16.5266 2.35191 17.0936 3.66633 17.3514 4.46529C16.8875 4.59416 16.372 4.7488 15.805 4.92921Z" fill="#070E25"/>
<path d="M20.1616 31.9909L28.2543 29.9806C28.2543 29.9806 24.775 6.44994 24.7492 6.2953C24.7234 6.14066 24.5946 6.03757 24.4657 6.03757C24.3368 6.03757 22.0688 5.98602 22.0688 5.98602C22.0688 5.98602 20.6771 4.64583 20.1616 4.13037V31.9909Z" fill="#070E25"/>
</svg>
