<svg width="136" height="31" viewBox="0 0 136 31" fill="none" xmlns="http://www.w3.org/2000/svg">
<path d="M40.188 17.8146V23.3903H37.0656V17.8146L32.8281 10.083H36.4709L38.9986 15.1383L41.5262 10.083H44.3512L40.188 17.8146ZM45.392 18.9298V19.4502C45.3177 20.6397 46.0611 21.6061 47.3249 21.6061C48.217 21.6061 49.1091 20.937 49.1091 20.0449L51.7855 20.2679C51.7855 20.7883 50.6703 23.6877 47.2506 23.6877C44.2769 23.6877 42.344 21.6061 42.344 18.7067C42.344 15.8074 44.0539 13.4284 47.1762 13.4284C48.5887 13.4284 50.0013 14.0232 50.819 15.2126C51.6368 16.4021 51.8598 17.7403 51.8598 19.0785L45.392 18.9298ZM47.2506 15.2126C45.9868 15.2126 45.4664 16.1791 45.392 17.2942H48.8861C48.8118 16.1791 48.4401 15.2126 47.2506 15.2126ZM53.0493 10.083H55.8743V23.4647H53.0493V10.083ZM57.5842 10.083H60.4836V23.4647H57.5842V10.083ZM66.2823 23.6134C63.2342 23.6134 61.5987 21.3087 61.5987 18.4837C61.5987 15.5844 63.3086 13.3541 66.2823 13.3541C69.4047 13.3541 71.0402 15.6587 71.0402 18.5581C71.0402 21.3831 69.1816 23.6134 66.2823 23.6134V23.6134ZM67.6204 16.1048C67.3974 15.4357 66.9514 15.2126 66.2823 15.2126C64.7211 15.2126 64.6467 16.9969 64.6467 18.1863C64.6467 19.3015 64.6467 21.7548 66.2823 21.7548C67.9178 21.7548 67.9922 19.8219 67.9922 18.6324C67.9178 17.8146 67.9178 16.8482 67.6204 16.1048V16.1048ZM82.0429 23.3903H79.5152L77.9541 17.0712L76.3929 23.3903H73.9396L70.8915 13.5028H73.9396L75.5008 19.5989H75.5751L77.0619 13.5028H79.6639L81.0764 19.5989H81.1508L82.7863 13.5028H85.0909L82.0429 23.3903ZM104.271 23.3903C104.123 22.7956 104.123 22.1265 104.123 21.4574V17.5916C104.123 16.5508 104.123 15.287 103.305 14.4692C102.561 13.6515 101.372 13.5771 100.406 13.5771C99.5134 13.5771 96.6884 13.7258 96.3167 16.0304L97.4318 16.2534C97.7292 15.1383 98.6956 14.5436 100.257 14.5436C102.115 14.5436 102.933 15.287 102.933 17.0712V17.6659H101.521C100.331 17.6659 98.9187 17.7403 97.8035 18.2607C96.7627 18.7811 96.0936 19.7475 96.0936 20.8627C96.0936 22.7956 97.7292 23.6877 99.3647 23.6877C100.926 23.6877 102.041 23.0186 102.71 21.7548L102.933 21.3087L103.008 21.8291L103.156 23.539L104.271 23.3903V23.3903ZM102.933 19.1528C102.933 20.1193 101.669 22.6469 99.6621 22.6469C98.6213 22.6469 97.3575 22.1265 97.3575 20.7883C97.3575 18.4094 100.48 18.4094 101.521 18.4094H102.933V19.1528ZM113.044 22.3495C112.375 22.1265 111.334 22.0522 110.516 22.0522H109.55C108.955 22.0522 108.36 22.0522 107.84 21.9035C107.319 21.7548 106.948 21.4574 106.948 20.937C106.948 20.3423 107.617 19.8962 108.137 19.8962C108.36 19.8962 108.583 19.8962 108.806 19.9706C109.029 20.0449 109.252 20.0449 109.55 20.0449C110.516 20.0449 111.334 19.8219 112.003 19.3015C112.746 18.7067 113.192 17.889 113.192 16.9225C113.192 16.0304 112.821 15.2126 112.3 14.6179L112.226 14.5436V14.4692C112.375 13.2797 113.192 13.2054 114.159 13.2054V12.2389H113.713C112.523 12.2389 112.077 12.685 111.854 13.8745V14.0975L111.706 14.0232C111.111 13.7258 110.442 13.5771 109.773 13.5771C107.988 13.5771 106.13 14.6922 106.13 16.7738C106.13 17.7403 106.576 18.7067 107.394 19.2271L107.617 19.3758L107.394 19.4502C106.576 19.8219 106.13 20.1936 106.13 21.0857C106.13 21.6804 106.427 22.1265 107.022 22.4982L107.245 22.6469L106.948 22.7212C106.056 23.0186 105.535 23.6877 105.535 24.5798C105.535 25.6949 106.427 26.2897 107.171 26.6614C107.988 26.9588 109.104 27.0331 109.996 27.0331C113.118 27.0331 114.754 26.141 114.754 24.3568C114.456 23.539 113.862 22.7212 113.044 22.3495ZM107.171 16.7738C107.171 15.4357 108.137 14.4692 109.55 14.4692C110.813 14.4692 111.854 15.4357 111.929 16.6995V16.7738C111.929 18.1863 110.962 19.1528 109.55 19.1528C108.063 19.0785 107.171 18.1863 107.171 16.7738ZM112.375 25.7693C111.706 26.0667 110.59 26.2153 109.773 26.2153C108.211 26.2153 106.502 25.7693 106.502 24.5055C106.502 23.6877 107.096 23.316 107.691 23.0186H107.84C108.583 23.093 109.55 23.1673 110.293 23.1673H111.185C111.929 23.2416 113.415 23.316 113.415 24.5055C113.267 25.2489 112.821 25.5463 112.375 25.7693" fill="#070E25"/>
<path d="M121.675 20.7146C121.154 21.9041 120.188 22.5732 118.924 22.5732C117.809 22.5732 116.768 21.9041 116.248 21.012C115.876 20.1942 115.802 19.4508 115.802 18.7073V18.5587H123.013C123.013 16.9231 122.567 15.5106 121.675 14.6928C120.931 13.9494 119.965 13.5777 118.85 13.5777C115.802 13.5777 114.389 16.1797 114.389 18.633C114.389 21.0863 115.727 23.614 118.776 23.614C120.634 23.614 122.195 22.5732 122.79 20.9376L121.675 20.7146V20.7146ZM115.876 17.5922C115.951 16.031 117.066 14.3955 118.85 14.3955C119.593 14.3955 120.262 14.6185 120.783 15.1389C121.378 15.7336 121.675 16.5514 121.675 17.5179V17.7409H115.876V17.5922V17.5922ZM130.819 18.5587C130.224 18.1869 129.555 18.0383 128.812 17.8896L127.325 17.5922C126.581 17.4435 125.392 17.2205 125.392 16.031C125.392 14.9159 126.507 14.4698 127.622 14.4698C128.886 14.4698 129.853 14.9902 130.224 16.031L131.339 15.808C130.745 13.8751 128.737 13.5777 127.622 13.5777C125.987 13.5777 124.054 14.3211 124.054 16.3284C124.054 17.7409 125.02 18.633 126.805 18.9304L128.44 19.2277C129.035 19.3021 130.522 19.5995 130.522 20.8633C130.522 22.2014 129.183 22.6475 127.994 22.6475C126.656 22.6475 125.169 22.0528 124.872 20.7889L123.682 21.012C124.128 22.6475 125.689 23.5396 127.845 23.5396C129.704 23.5396 131.785 22.7962 131.785 20.6403C132.008 19.8225 131.562 19.0047 130.819 18.5587V18.5587ZM94.4655 11.1988C93.5734 10.4553 92.3839 10.3066 91.3431 10.3066H87.0312V23.3909H88.4438V17.9639H91.5661C92.9787 17.9639 93.9451 17.6666 94.6885 16.9231C95.432 16.1797 95.8037 15.2132 95.8037 14.1725C95.7293 12.983 95.2089 11.8678 94.4655 11.1988V11.1988ZM93.5734 16.1054C92.9043 16.7744 92.0865 16.8488 91.3431 16.8488H88.3694V11.4218H91.4918C92.1609 11.4218 92.7556 11.4961 93.4247 11.9422C94.0194 12.4626 94.3912 13.2803 94.3912 14.1725C94.3168 14.9159 94.0938 15.585 93.5734 16.1054Z" fill="#070E25"/>
<path d="M23.0087 29.7095C16.6152 32.7576 5.0178 24.4312 1.96975 17.9634C-1.07829 11.4956 2.71318 5.1765 9.10664 2.2028C11.1882 1.23634 13.4185 0.715944 15.7231 0.641602C19.9606 0.641602 23.9008 2.64885 25.9081 6.88638C28.8818 13.3542 29.4022 26.7358 23.0087 29.7095V29.7095Z" fill="#CCCCCC"/>
<path d="M8.4375 7.33203H12.5263C13.9388 7.33203 16.2435 7.55506 17.5073 10.0827L23.6777 22.944C23.083 23.5387 22.0422 23.5387 21.4474 22.944C21.3731 22.8696 21.2988 22.7953 21.2988 22.7209L16.0204 15.2123C15.277 14.1715 13.7902 13.8742 12.7494 14.6176L12.5263 14.8406L11.0395 16.2531C10.3704 16.8479 9.40395 16.8479 8.73487 16.1788L8.58618 16.0301L9.99869 14.1715C10.9651 12.8334 11.0395 11.0492 10.1474 9.71099L8.4375 7.33203ZM10.8165 20.788C10.5934 21.1597 10.5191 21.6058 10.5934 21.9775C10.6678 22.7953 11.7086 23.5387 11.7086 23.5387L15.5744 16.9966C15.7231 16.6992 15.7231 16.2531 15.5744 15.9558C14.7566 14.6176 13.5671 15.0637 13.5671 15.0637L10.8165 20.788V20.788ZM132.738 13.5025H132.441V12.09H131.92V11.8669H133.184V12.09H132.664L132.738 13.5025ZM135.117 13.5025H134.894V12.1643L134.374 13.5025H134.225L133.705 12.1643V13.5025H133.482V11.8669H133.853L134.374 13.1307L134.894 11.8669H135.266V13.5025H135.117Z" fill="#070E25"/>
</svg>
