<svg width="135" height="38" viewBox="0 0 135 38" fill="none" xmlns="http://www.w3.org/2000/svg">
<path d="M41.8457 0.617152V8.91457C41.9156 8.86526 41.9495 8.84988 41.9708 8.82424C42.7987 7.83765 43.8586 7.26448 45.1308 7.11497C46.5371 6.95008 47.8705 7.1631 49.0373 8.03134C50.0357 8.77453 50.598 9.80254 50.9046 10.986C51.0833 11.6751 51.1516 12.3777 51.1504 13.0901C51.1461 16.2254 51.1469 19.3611 51.1528 22.4964C51.1528 22.6858 51.1039 22.7386 50.9133 22.7378C49.3092 22.7303 47.7056 22.7335 46.1015 22.7335C45.8939 22.7335 45.7902 22.6322 45.7902 22.4297C45.7902 19.8136 45.7921 17.1974 45.7882 14.5812C45.7874 14.0818 45.7574 13.5844 45.5676 13.111C45.2306 12.27 44.5006 11.9505 43.6909 12.0258C42.6803 12.1197 42.1314 12.8578 41.959 13.7931C41.9069 14.0751 41.8832 14.3666 41.8828 14.6538C41.8773 17.257 41.8797 19.8597 41.8793 22.4629C41.8793 22.6428 41.7917 22.7328 41.6165 22.7331C39.9927 22.7331 38.3693 22.7291 36.7455 22.7378C36.5415 22.739 36.4949 22.6802 36.4949 22.4834C36.4997 15.2921 36.4993 8.10077 36.4985 0.90946C36.4985 0.811629 36.487 0.714194 36.4807 0.616364C38.269 0.616364 40.0574 0.616364 41.8457 0.616364V0.617152Z" fill="#707070"/>
<path d="M100.816 0.617735C99.1422 4.66033 97.4687 8.70292 95.7948 12.7455C95.5738 13.2788 95.3505 13.811 95.1323 14.3455C95.094 14.4398 95.0526 14.4942 94.9361 14.4938C92.885 14.4903 90.8339 14.4911 88.7827 14.4907C88.7638 14.4907 88.7448 14.4832 88.6995 14.4737C88.8226 14.1727 88.9417 13.8773 89.0637 13.5834C90.444 10.2501 91.8251 6.91673 93.205 3.58301C93.6138 2.59524 94.0187 1.6059 94.4251 0.61734C96.5552 0.61734 98.6857 0.61734 100.816 0.61734L100.816 0.617735Z" fill="#707070"/>
<path d="M70.4812 37.3829C70.2176 37.3364 69.9501 37.3052 69.6908 37.2405C69.0618 37.0835 68.5299 36.7601 68.0856 36.2252V37.1257H64.926V24.5822H68.0631V29.3924C68.1065 29.3684 68.1302 29.3621 68.1432 29.3467C69.3195 27.9506 71.5285 27.8804 72.9459 28.9798C73.8736 29.6993 74.3992 30.6626 74.6012 31.8011C74.8408 33.1514 74.6454 34.4362 73.8779 35.594C73.1988 36.6184 72.2526 37.235 71.0076 37.3494C70.963 37.3534 70.9196 37.3715 70.8754 37.3833H70.4808L70.4812 37.3829ZM69.7623 31.0607C68.788 31.0579 67.9944 31.8228 67.9889 32.7695C67.9834 33.7403 68.7777 34.5336 69.7548 34.5325C70.7117 34.5313 71.5084 33.7431 71.5103 32.7964C71.5123 31.8441 70.7255 31.063 69.7623 31.0607Z" fill="#070E25"/>
<path d="M44.6068 37.3824C44.4482 37.3477 44.2892 37.3153 44.1313 37.2779C43.1768 37.0491 42.4219 36.5212 41.8533 35.7287C40.6276 34.0215 40.6647 31.4364 41.9318 29.7615C42.9957 28.3552 44.8653 27.8167 46.4184 28.4704C46.8182 28.6388 47.1646 28.8818 47.4476 29.2128C47.4728 29.2424 47.5008 29.27 47.5284 29.2976C47.5312 29.3004 47.5399 29.2964 47.5659 29.2929V28.4499H50.6797V37.1256H47.5762V36.2538C47.5261 36.2917 47.4996 36.3047 47.4823 36.3256C46.9807 36.9122 46.3367 37.2309 45.5811 37.3422C45.5444 37.3477 45.5101 37.3682 45.4749 37.3816H44.6072L44.6068 37.3824ZM44.0749 32.8005C44.0816 33.7871 44.8688 34.5504 45.8751 34.5465C46.8726 34.5426 47.6527 33.7627 47.6488 32.7733C47.6449 31.808 46.8446 31.0301 45.8577 31.0329C44.8598 31.0357 44.0682 31.8203 44.0749 32.8009V32.8005Z" fill="#070E25"/>
<path d="M78.2118 37.383C78.0145 37.3373 77.8128 37.3049 77.6206 37.2438C76.5102 36.8892 75.9274 36.0754 75.6985 34.9775C75.6307 34.6521 75.605 34.3128 75.6034 33.9799C75.5944 32.2051 75.5991 30.43 75.5995 28.6552C75.5995 28.5913 75.6054 28.5274 75.6093 28.4533H78.7772C78.7772 28.5412 78.7772 28.6178 78.7772 28.6947C78.7772 30.1278 78.7721 31.561 78.782 32.9937C78.7839 33.2596 78.8147 33.5345 78.8901 33.7882C79.0081 34.1874 79.2977 34.4245 79.7211 34.4667C80.1856 34.5132 80.5636 34.3649 80.8035 33.944C80.9755 33.6422 81.0028 33.3081 81.0032 32.9708C81.0047 31.5507 81.004 30.131 81.004 28.7109C81.004 28.6328 81.004 28.5547 81.004 28.4588H84.1695V37.1282H81.017V36.1337C80.9641 36.1779 80.9381 36.1917 80.9235 36.213C80.4843 36.8694 79.8671 37.2371 79.0897 37.3464C79.059 37.3507 79.0306 37.3704 79.0014 37.3826H78.2125L78.2118 37.383Z" fill="#070E25"/>
<path d="M112.5 37.3824C112.231 37.3304 111.96 37.2874 111.694 37.2242C109.913 36.7998 108.728 35.4803 108.474 33.6657C108.3 32.4227 108.466 31.2448 109.187 30.1994C110.209 28.7154 111.664 28.1079 113.438 28.2215C114.395 28.2827 115.26 28.6002 115.995 29.2286C116.842 29.9537 117.296 30.8976 117.46 31.9852C117.517 32.3604 117.52 32.7438 117.536 33.1241C117.541 33.2728 117.514 33.4231 117.5 33.5915H111.522C111.522 34.1749 111.99 34.7193 112.626 34.8558C113.321 35.0053 113.943 34.8775 114.43 34.3079C114.468 34.2629 114.57 34.2266 114.62 34.2456C115.479 34.569 116.335 34.9016 117.217 35.242C117.176 35.3126 117.145 35.3742 117.107 35.4314C116.391 36.5106 115.366 37.0937 114.107 37.3012C113.939 37.3288 113.771 37.356 113.604 37.3836H112.499L112.5 37.3824ZM114.433 31.7753C114.446 31.1327 113.806 30.6057 113.014 30.5986C112.208 30.5915 111.547 31.1193 111.548 31.7753H114.433Z" fill="#070E25"/>
<path d="M130.05 37.3821C129.708 37.3284 129.364 37.2839 129.024 37.2196C128.29 37.0803 127.591 36.8413 126.94 36.4709C126.877 36.4354 126.817 36.3963 126.755 36.3576C126.74 36.3474 126.726 36.3332 126.699 36.3099C127.066 35.5659 127.433 34.8208 127.782 34.1111C128.353 34.3206 128.897 34.5478 129.458 34.7174C129.973 34.8736 130.51 34.9505 131.054 34.8645C131.143 34.8507 131.235 34.8227 131.311 34.7762C131.505 34.6567 131.511 34.4026 131.313 34.2926C131.161 34.2077 130.988 34.1553 130.818 34.1075C130.194 33.932 129.563 33.7766 128.943 33.5876C128.701 33.5143 128.47 33.3884 128.251 33.259C127.304 32.7001 126.992 31.8472 127.118 30.8291C127.287 29.4618 128.179 28.7332 129.431 28.4011C130.79 28.0405 132.129 28.218 133.437 28.6835C133.782 28.8062 134.115 28.9616 134.472 29.1095C134.141 29.8823 133.82 30.633 133.496 31.3924C133.216 31.2728 132.954 31.1537 132.687 31.0492C132.077 30.8109 131.448 30.6551 130.787 30.6756C130.664 30.6795 130.526 30.6874 130.425 30.7454C130.331 30.7999 130.235 30.9182 130.221 31.0192C130.212 31.0906 130.323 31.2247 130.407 31.2547C130.765 31.3809 131.137 31.4673 131.497 31.59C132.048 31.7782 132.611 31.9466 133.137 32.1916C133.871 32.5324 134.414 33.0661 134.552 33.9146C134.557 33.943 134.601 33.9651 134.626 33.9904V34.7399C134.598 34.7924 134.556 34.8417 134.545 34.8977C134.461 35.3375 134.295 35.7395 134.013 36.0902C133.518 36.7071 132.851 37.0385 132.1 37.2196C131.815 37.2882 131.523 37.3292 131.234 37.3829H130.05L130.05 37.3821Z" fill="#070E25"/>
<path d="M121.455 37.3818C121.113 37.3282 120.769 37.2844 120.429 37.2185C119.612 37.0595 118.836 36.7862 118.106 36.3207C118.476 35.5676 118.844 34.8185 119.217 34.0603C119.86 34.4098 120.514 34.6872 121.22 34.796C121.631 34.8596 122.054 34.8485 122.472 34.8615C122.546 34.8639 122.627 34.8292 122.695 34.7929C122.925 34.669 122.938 34.3945 122.704 34.2797C122.506 34.1826 122.286 34.129 122.072 34.0663C121.437 33.8801 120.798 33.7077 120.167 33.5112C119.976 33.4517 119.797 33.3412 119.625 33.2359C118.739 32.6962 118.411 31.8777 118.524 30.8832C118.671 29.6012 119.484 28.7396 120.845 28.3961C122.209 28.0521 123.544 28.2181 124.851 28.6844C125.196 28.8075 125.529 28.9625 125.882 29.1093C125.551 29.8836 125.23 30.6347 124.916 31.3692C124.436 31.1925 123.985 30.9866 123.513 30.8639C123.086 30.7531 122.635 30.727 122.193 30.6769C122.086 30.6647 121.957 30.6769 121.868 30.7294C121.766 30.7897 121.662 30.8959 121.628 31.0039C121.583 31.1463 121.716 31.23 121.838 31.2678C122.238 31.3929 122.641 31.5097 123.045 31.6241C123.684 31.8055 124.312 32.0122 124.879 32.3712C125.502 32.7653 125.91 33.3053 125.982 34.0544C126.105 35.3455 125.503 36.3838 124.322 36.938C123.848 37.1605 123.346 37.284 122.827 37.3404C122.763 37.3475 122.701 37.3676 122.638 37.3818H121.454H121.455Z" fill="#070E25"/>
<path d="M88.3146 37.3823C87.9724 37.329 87.6287 37.2821 87.2878 37.2209C86.443 37.0694 85.4762 36.6915 84.9573 36.3113C85.3219 35.5696 85.6881 34.8249 86.0574 34.0738C86.3352 34.2004 86.5984 34.3298 86.8687 34.4418C87.5289 34.7164 88.2155 34.8832 88.9329 34.8939C89.1014 34.8967 89.2734 34.8702 89.4388 34.8347C89.5887 34.8028 89.6976 34.7117 89.7079 34.5381C89.7181 34.3669 89.6084 34.2773 89.4739 34.2367C89.1231 34.1302 88.7644 34.0493 88.4132 33.9444C87.9117 33.7941 87.3999 33.6651 86.9173 33.4663C86.0377 33.1038 85.4493 32.4773 85.3661 31.4844C85.2757 30.4055 85.6391 29.5207 86.553 28.9014C87.2432 28.434 88.0245 28.262 88.8453 28.2265C90.211 28.1673 91.482 28.5105 92.7215 29.1227C92.3979 29.8813 92.0779 30.6312 91.7539 31.3909C91.4741 31.2722 91.2129 31.1535 90.9462 31.0489C90.3361 30.8107 89.7083 30.6549 89.0473 30.6738C88.9305 30.6773 88.8114 30.6967 88.6993 30.729C88.5639 30.7681 88.4463 30.8647 88.4771 31.0107C88.4972 31.1061 88.5916 31.2276 88.68 31.2592C89.0379 31.3858 89.4056 31.4848 89.771 31.5882C90.3906 31.7633 91.0046 31.9515 91.5677 32.2738C92.1927 32.6316 92.6587 33.1172 92.7992 33.8501C93.0273 35.0395 92.5076 36.17 91.4568 36.785C90.915 37.1022 90.3231 37.2612 89.7051 37.3377C89.6353 37.3464 89.5666 37.3661 89.4972 37.3807H88.3138L88.3146 37.3823Z" fill="#070E25"/>
<path d="M20.976 37.3825C20.6268 37.3288 20.2752 37.2862 19.9287 37.2188C19.1111 37.0602 18.3353 36.7872 17.6057 36.3213C17.9743 35.571 18.3405 34.8263 18.713 34.0681C18.7852 34.1028 18.8491 34.1312 18.9111 34.1631C19.6774 34.5592 20.4831 34.8259 21.3477 34.8839C21.575 34.8992 21.8074 34.8819 22.0339 34.8523C22.1937 34.8314 22.3366 34.7501 22.3607 34.5604C22.3859 34.3596 22.249 34.2685 22.0931 34.2243C21.6456 34.0973 21.1879 34.0034 20.7444 33.8641C20.2641 33.7131 19.7784 33.5624 19.325 33.3478C17.4944 32.4815 17.7 29.9671 19.074 28.9896C19.7267 28.5253 20.4587 28.3028 21.2428 28.2409C22.6752 28.1277 24.0196 28.4582 25.2996 29.0866C25.317 29.0949 25.3316 29.1083 25.3703 29.1352C25.051 29.8827 24.7306 30.633 24.4082 31.3892C24.0906 31.257 23.7927 31.1233 23.4876 31.0085C22.9119 30.792 22.3188 30.6555 21.6989 30.676C21.5762 30.6799 21.4373 30.6866 21.3367 30.745C21.2443 30.7987 21.1512 30.919 21.139 31.0196C21.1299 31.0925 21.2368 31.2263 21.3193 31.2555C21.6776 31.3817 22.0505 31.4657 22.4092 31.5908C22.99 31.7931 23.5823 31.977 24.1364 32.2393C24.7807 32.5442 25.2637 33.0326 25.431 33.7628C25.6978 34.9261 25.2266 36.0752 24.2216 36.7186C23.651 37.0838 23.0165 37.2586 22.3508 37.3407C22.2734 37.3501 22.1973 37.3687 22.1203 37.3833H20.9764L20.976 37.3825Z" fill="#070E25"/>
<path d="M29.4633 8.81653C29.4633 8.43034 29.472 8.04375 29.4594 7.65795C29.4539 7.4832 29.5099 7.4331 29.6819 7.43349C31.2596 7.43862 32.8376 7.43783 34.4152 7.43271C34.5888 7.43231 34.6527 7.47491 34.6524 7.66387C34.6472 12.6138 34.6476 17.564 34.6504 22.5139C34.6504 22.6583 34.6405 22.7392 34.455 22.7384C32.851 22.7309 31.2469 22.734 29.6429 22.7337C29.5916 22.7337 29.5407 22.7262 29.4689 22.7202V21.3088C29.3959 21.3707 29.3556 21.396 29.3268 21.4307C28.5936 22.3171 27.6304 22.807 26.5196 23.0094C23.1264 23.6267 20.0051 21.7364 18.6899 18.5502C18.1702 17.2911 17.939 15.9763 18.0321 14.6244C18.2168 11.9428 19.3035 9.73053 21.5674 8.18813C22.5574 7.51357 23.667 7.16052 24.8682 7.08596C26.1511 7.00628 27.3522 7.24849 28.4311 7.96367C28.74 8.1684 29.0009 8.44533 29.2822 8.69109C29.3304 8.7329 29.3702 8.78418 29.414 8.83112C29.4302 8.82639 29.4468 8.82166 29.4629 8.81692L29.4633 8.81653ZM26.406 18.265C28.2002 18.2658 29.5813 16.8915 29.5825 15.1053C29.5833 13.314 28.205 11.9274 26.4221 11.9258C24.607 11.9242 23.2065 13.3065 23.2065 15.099C23.2065 16.8832 24.6026 18.2642 26.406 18.265Z" fill="#707070"/>
<path d="M0.543213 7.44818C0.663566 7.44266 0.747617 7.43556 0.831272 7.43556C2.59317 7.43477 4.35467 7.43753 6.11657 7.43082C6.30282 7.43004 6.39003 7.48645 6.45948 7.66435C7.56673 10.5129 8.68227 13.3578 9.79623 16.2036C9.82109 16.2671 9.85068 16.3286 9.90198 16.445C9.99629 16.2095 10.0693 16.0304 10.1403 15.8505C11.2184 13.1172 12.2976 10.3847 13.3709 7.64976C13.4333 7.49039 13.5134 7.43201 13.6862 7.4328C15.415 7.43911 17.1441 7.43635 18.8729 7.43714C18.9435 7.43714 19.0145 7.44424 19.1179 7.45015C19.0899 7.53102 19.0725 7.59019 19.0488 7.647C16.9089 12.8095 14.7686 17.972 12.6283 23.1341C11.9223 24.8367 11.2148 26.5389 10.5112 28.2422C10.4643 28.3562 10.4158 28.4221 10.2737 28.4217C8.47234 28.4166 6.67138 28.4185 4.87002 28.4182C4.83766 28.4182 4.80531 28.4138 4.74296 28.4091C4.77137 28.3318 4.79189 28.2675 4.81793 28.2055C5.54518 26.4832 6.2748 24.7621 6.99574 23.0371C7.0352 22.9428 7.03638 22.8032 6.99692 22.7097C4.96354 17.8927 2.92345 13.0789 0.884543 8.26475C0.774844 8.00597 0.667907 7.74641 0.543213 7.44818Z" fill="#707070"/>
<path d="M52.3249 15.1825C52.3513 12.7936 53.1295 10.8066 54.8227 9.21806C56.0464 8.07013 57.5115 7.40899 59.1688 7.16954C61.1407 6.88473 63.0198 7.16757 64.7552 8.16678C66.8071 9.34824 68.0734 11.1285 68.5213 13.4457C68.97 15.7664 68.5667 17.9439 67.1619 19.8788C65.9635 21.5293 64.3279 22.5257 62.3371 22.9364C60.4852 23.3182 58.6736 23.1711 56.9504 22.379C54.479 21.2429 52.9996 19.306 52.4653 16.6437C52.4318 16.4768 52.4038 16.3084 52.3892 16.1391C52.36 15.7928 52.3418 15.4453 52.3245 15.1825H52.3249ZM63.5888 15.0875C63.586 13.3368 62.2337 11.9652 60.501 11.9825C58.7068 12.0007 57.4255 13.3415 57.4275 15.0973C57.4294 16.8729 58.7202 18.2019 60.5207 18.2125C62.253 18.2228 63.5915 16.8433 63.5888 15.0871V15.0875Z" fill="#707070"/>
<path d="M69.6374 15.2863C69.6962 12.4551 70.6819 10.2713 72.8135 8.66381C73.9811 7.78334 75.3133 7.29656 76.7654 7.13206C78.5889 6.92535 80.3299 7.19794 81.9414 8.09182C84.0987 9.28906 85.4116 11.1214 85.859 13.5459C86.269 15.766 85.8847 17.8476 84.5959 19.7198C83.4007 21.4559 81.7307 22.5048 79.6756 22.9336C77.7405 23.3372 75.8535 23.1612 74.0727 22.2886C71.7307 21.1415 70.3173 19.2488 69.7976 16.6997C69.6906 16.1754 69.6745 15.633 69.637 15.2867L69.6374 15.2863ZM80.9096 15.1123C80.9119 13.3435 79.573 11.9687 77.8277 11.9829C76.0457 11.9975 74.7514 13.3127 74.7482 15.0922C74.7451 16.8551 76.0161 18.1877 77.8174 18.2129C79.5478 18.237 80.9072 16.8595 80.9096 15.1123Z" fill="#707070"/>
<path d="M26.4424 37.1338V28.4541H29.5957V29.3713C29.6087 29.3812 29.6213 29.391 29.6344 29.4009C30.2097 28.5524 31.0178 28.1666 32.017 28.2037C33.0212 28.2411 33.7978 28.6952 34.3282 29.5804C34.6241 29.1303 34.9919 28.7804 35.4646 28.5571C36.3813 28.1244 37.3287 28.0644 38.2777 28.4163C39.3522 28.8147 39.8459 29.6802 40.0258 30.7551C40.0818 31.09 40.0988 31.4348 40.1 31.7752C40.1071 33.4778 40.1032 35.1804 40.1032 36.8825C40.1032 36.9602 40.1032 37.038 40.1032 37.1283H36.9294C36.9294 37.0533 36.9294 36.9772 36.9294 36.9011C36.9294 35.4285 36.9353 33.9563 36.9242 32.4837C36.9223 32.2257 36.8832 31.9583 36.8047 31.7133C36.6827 31.3322 36.3852 31.1342 35.9875 31.1098C35.5723 31.0845 35.2432 31.2407 35.0353 31.6135C34.8763 31.8987 34.853 32.2115 34.8534 32.5299C34.8549 33.9827 34.8538 35.4352 34.8538 36.8881C34.8538 36.9654 34.8538 37.0427 34.8538 37.1303H31.6804C31.6804 37.0474 31.6804 36.9709 31.6804 36.8944C31.6804 35.4155 31.6859 33.9362 31.6753 32.4573C31.6733 32.206 31.6314 31.9453 31.5533 31.707C31.4314 31.335 31.1402 31.1378 30.7511 31.1106C30.3376 31.0814 30.0053 31.2309 29.7926 31.6021C29.63 31.8861 29.6032 32.1985 29.6036 32.5169C29.6044 33.5685 29.6036 34.6202 29.6036 35.6719C29.6036 36.0861 29.6036 36.5003 29.6036 36.9141C29.6036 36.9843 29.6036 37.0549 29.6036 37.133H26.4417L26.4424 37.1338Z" fill="#070E25"/>
<path d="M107.318 37.132H104.133V36.9052C104.133 35.42 104.138 33.9344 104.128 32.4492C104.127 32.2168 104.086 31.9766 104.016 31.7553C103.895 31.3715 103.617 31.1466 103.21 31.1032C102.762 31.0555 102.392 31.188 102.149 31.5896C101.966 31.8926 101.922 32.2295 101.922 32.5746C101.921 34.0074 101.922 35.4401 101.922 36.8728V37.1253H98.7542V28.4543H101.916V29.4228C101.972 29.3608 101.997 29.3372 102.017 29.3091C102.664 28.4279 103.561 28.1269 104.611 28.2164C106.276 28.3581 107.135 29.5695 107.279 31.0594C107.323 31.5226 107.316 31.9912 107.317 32.4575C107.321 33.9296 107.319 35.4018 107.319 36.874V37.1324L107.318 37.132Z" fill="#070E25"/>
<path d="M93.8345 19.3765C93.872 21.2112 92.4522 22.9426 90.3387 23.0049C88.2741 23.0656 86.73 21.496 86.7229 19.5035C86.7158 17.4866 88.3294 15.9008 90.343 15.887C92.3551 15.8732 93.8684 17.481 93.8341 19.3765H93.8345Z" fill="#707070"/>
<path d="M52.1604 24.5744H55.2983V37.1262H52.1604V24.5744Z" fill="#070E25"/>
<path d="M56.7854 24.5763H59.9185V37.1266H56.7854V24.5763Z" fill="#070E25"/>
<path d="M97.1672 37.1361H94.012V28.4383C94.0688 28.4383 94.1311 28.4383 94.1935 28.4383C95.12 28.4383 96.0469 28.4422 96.9735 28.4347C97.1384 28.4336 97.1826 28.4821 97.1822 28.645C97.1775 31.4119 97.179 34.1787 97.1783 36.9456C97.1783 37.0032 97.1716 37.0612 97.1668 37.1357L97.1672 37.1361Z" fill="#070E25"/>
<path d="M95.5547 27.64C94.5772 27.6325 93.7951 26.84 93.8011 25.8625C93.8066 24.9047 94.6218 24.1216 95.604 24.1311C96.5684 24.1402 97.3655 24.939 97.3608 25.892C97.3561 26.8684 96.5511 27.6475 95.5547 27.64Z" fill="#070E25"/>
</svg>
