<svg width="138" height="26" viewBox="0 0 138 26" fill="none" xmlns="http://www.w3.org/2000/svg">
<path fill-rule="evenodd" clip-rule="evenodd" d="M21.6885 3.29819C21.6885 4.82939 20.4688 6.09651 18.9379 6.09651H6.92412C4.51097 6.09651 2.4092 7.52204 1.39723 9.58113C0.982065 8.73642 0.748535 7.75961 0.748535 6.75649C0.774483 3.27186 3.68064 0.499939 7.10576 0.499939H18.9379C20.4429 0.499939 21.6885 1.74069 21.6885 3.29819Z" fill="#070E25"/>
<path fill-rule="evenodd" clip-rule="evenodd" d="M21.6885 11.2708C21.6885 12.8019 20.4688 14.0691 18.9379 14.0691H6.92412C4.51097 14.0691 2.4092 15.4947 1.39723 17.5538C0.982065 16.6826 0.748535 15.7323 0.748535 14.7291C0.774483 11.2444 3.68064 8.4726 7.10576 8.4726H18.9379C20.4429 8.4726 21.6885 9.7133 21.6885 11.2708Z" fill="#070E25"/>
<path fill-rule="evenodd" clip-rule="evenodd" d="M21.6885 19.2171C21.6885 20.7483 20.4688 22.0154 18.9379 22.0154H6.92412C4.51097 22.0154 2.4092 23.441 1.39723 25.5001C0.982065 24.6553 0.748535 23.705 0.748535 22.6754C0.774483 19.1908 3.68064 16.4189 7.10576 16.4189H18.9379C20.4429 16.4189 21.6885 17.686 21.6885 19.2171Z" fill="#070E25"/>
<path d="M41.4313 10.9803C42.8843 11.8251 43.6109 13.0923 43.6109 14.8082C43.6109 16.2337 43.1179 17.3953 42.1318 18.3192C41.1458 19.2432 39.9263 19.692 38.4732 19.692H31.4673V2.90228H37.9802C39.3813 2.90228 40.575 3.35111 41.561 4.22224C42.5211 5.11979 43.014 6.22859 43.014 7.60128C42.9881 9.02682 42.4692 10.1356 41.4313 10.9803ZM37.9802 5.99092H34.7367V9.68679H37.9802C38.4732 9.68679 38.9143 9.50206 39.2517 9.15881C39.5889 8.81566 39.7705 8.36684 39.7705 7.83886C39.7705 7.31088 39.6149 6.86215 39.2776 6.5189C38.9143 6.17575 38.4991 5.99092 37.9802 5.99092ZM38.4732 16.6033C39.0181 16.6033 39.4852 16.4186 39.8484 16.049C40.2117 15.6793 40.3934 15.2042 40.3934 14.6234C40.3934 14.0691 40.2117 13.5938 39.8484 13.2243C39.4852 12.8547 39.0441 12.6699 38.4732 12.6699H34.7367V16.6297H38.4732V16.6033Z" fill="#070E25"/>
<path d="M55.5903 18.1897C54.3707 19.4041 52.9176 20.0113 51.1532 20.0113C49.4148 20.0113 47.9357 19.4041 46.7421 18.1897C45.5484 16.9754 44.9517 15.4707 44.9517 13.7019C44.9517 11.9332 45.5484 10.4284 46.7421 9.21404C47.9357 7.99975 49.4148 7.39252 51.1532 7.39252C52.8917 7.39252 54.3707 7.99975 55.5903 9.21404C56.8098 10.4284 57.4066 11.9332 57.4066 13.7019C57.4066 15.4707 56.8098 16.9754 55.5903 18.1897ZM48.8958 16.0778C49.4925 16.7114 50.2451 17.0018 51.1791 17.0018C52.0873 17.0018 52.8399 16.6849 53.4626 16.0778C54.0853 15.4442 54.3707 14.6523 54.3707 13.7019C54.3707 12.7515 54.0594 11.9595 53.4626 11.326C52.8399 10.6924 52.0873 10.402 51.1791 10.402C50.271 10.402 49.5185 10.7188 48.8958 11.326C48.299 11.9595 47.9876 12.7515 47.9876 13.7019C47.9876 14.6523 48.299 15.4442 48.8958 16.0778Z" fill="#070E25"/>
<path d="M69.4809 18.1897C68.2613 19.4041 66.8083 20.0113 65.0438 20.0113C63.3053 20.0113 61.8263 19.4041 60.6327 18.1897C59.4391 16.9754 58.8423 15.4707 58.8423 13.7019C58.8423 11.9332 59.4391 10.4284 60.6327 9.21404C61.8263 7.99975 63.3053 7.39252 65.0438 7.39252C66.7823 7.39252 68.2613 7.99975 69.4809 9.21404C70.7004 10.4284 71.2972 11.9332 71.2972 13.7019C71.2972 15.4707 70.7004 16.9754 69.4809 18.1897ZM62.7864 16.0778C63.3832 16.7114 64.1356 17.0018 65.0698 17.0018C65.9779 17.0018 66.7304 16.6849 67.3532 16.0778C67.976 15.4442 68.2613 14.6523 68.2613 13.7019C68.2613 12.7515 67.95 11.9595 67.3532 11.326C66.7304 10.6924 65.9779 10.402 65.0698 10.402C64.1616 10.402 63.4091 10.7188 62.7864 11.326C62.1896 11.9595 61.8782 12.7515 61.8782 13.7019C61.8782 14.6523 62.1636 15.4442 62.7864 16.0778Z" fill="#070E25"/>
<path d="M83.7431 19.692H80.2143L75.9329 14.2538V19.692H72.897V2.90228H75.9329V12.9867L79.9807 7.70686H83.6134L78.8909 13.6202L83.7431 19.692Z" fill="#070E25"/>
<path d="M97.8941 7.36615C99.2437 7.36615 100.334 7.81497 101.138 8.71252C101.943 9.61007 102.358 10.798 102.358 12.3027V19.6945H99.3219V12.514C99.3219 11.8012 99.1396 11.2468 98.8027 10.8245C98.4649 10.4285 97.9724 10.2172 97.3492 10.2172C96.6487 10.2172 96.1299 10.4548 95.7407 10.9036C95.3515 11.3523 95.1699 12.0387 95.1699 12.91V19.6416H92.1339V12.514C92.1339 11.8012 91.9523 11.2468 91.615 10.8245C91.2777 10.4285 90.7846 10.2172 90.1619 10.2172C89.4872 10.2172 88.9423 10.4548 88.5531 10.9036C88.1639 11.3523 87.9563 12.0387 87.9563 12.91V19.6416H84.9204V7.7093H87.9563V8.97651C88.6569 7.89413 89.7467 7.36615 91.2258 7.36615C92.6788 7.36615 93.7427 7.94697 94.4173 9.08209C95.1699 7.94697 96.3375 7.36615 97.8941 7.36615Z" fill="#070E25"/>
<path d="M113.276 7.70934H116.312V19.6944H113.276V18.2689C112.368 19.4304 111.096 20.0113 109.436 20.0113C107.853 20.0113 106.53 19.4041 105.388 18.1897C104.272 16.9754 103.702 15.4707 103.702 13.7019C103.702 11.9332 104.272 10.4284 105.388 9.21404C106.504 7.99975 107.853 7.39252 109.436 7.39252C111.096 7.39252 112.368 7.97334 113.276 9.13488V7.70934ZM107.672 16.1306C108.294 16.7642 109.073 17.0809 110.006 17.0809C110.941 17.0809 111.719 16.7642 112.342 16.1306C112.965 15.497 113.276 14.6787 113.276 13.7019C113.276 12.6988 112.965 11.9068 112.342 11.2732C111.719 10.6397 110.941 10.3228 110.006 10.3228C109.073 10.3228 108.294 10.6397 107.672 11.2732C107.049 11.9068 106.763 12.7252 106.763 13.7019C106.763 14.6787 107.049 15.497 107.672 16.1306Z" fill="#070E25"/>
<path d="M121.425 9.76731C121.71 9.00175 122.177 8.42093 122.826 8.05137C123.474 7.65538 124.201 7.47064 125.005 7.47064V10.9288C124.072 10.8233 123.241 11.0081 122.514 11.5097C121.788 12.0112 121.425 12.8296 121.425 13.9647V19.6933H118.389V7.70821H121.425V9.76731Z" fill="#070E25"/>
<path d="M137.415 19.692H133.886L129.605 14.2538V19.692H126.569V2.90228H129.605V12.9867L133.652 7.70686H137.286L132.562 13.6202L137.415 19.692Z" fill="#070E25"/>
</svg>
