<svg width="65" height="43" viewBox="0 0 65 43" fill="none" xmlns="http://www.w3.org/2000/svg">
<path d="M49.5922 37.8797C48.4185 40.6109 45.7314 42.3809 42.7588 42.3809H14.4473C9.06431 42.3809 5.4641 36.8397 7.65133 31.9212L18.4005 7.749C19.5946 5.06383 22.2577 3.3335 25.1964 3.3335H53.1462C58.4889 3.3335 62.0889 8.79892 59.9796 13.7076L49.5922 37.8797Z" fill="#BBF7FF"/>
<path d="M35.5208 20.8543C35.5208 12.5731 28.8021 5.85431 20.5208 5.85431C12.2396 5.85431 5.52081 12.5731 5.52081 20.8543C5.52081 29.1356 12.2396 35.8543 20.5208 35.8543C28.8021 35.8543 35.5208 29.1356 35.5208 20.8543Z" stroke="#0C0B60" stroke-width="2.42014" stroke-miterlimit="10"/>
<path d="M16.572 25.3618H19.7895V16.5643C19.5345 16.9543 19.152 17.2768 18.642 17.5318C18.147 17.7868 17.6445 17.9143 17.1345 17.9143H16.887V14.6293H16.9995C17.5395 14.6293 17.9895 14.5468 18.3495 14.3818C18.7245 14.2018 19.0245 13.9843 19.2495 13.7293C19.4895 13.4593 19.6545 13.1668 19.7445 12.8518C19.8495 12.5368 19.902 12.2293 19.902 11.9293H22.917V25.3618H25.9545V28.3543H16.572V25.3618Z" fill="#0C0B60"/>
</svg>
