<svg width="65" height="43" viewBox="0 0 65 43" fill="none" xmlns="http://www.w3.org/2000/svg">
<path d="M49.5922 37.8797C48.4185 40.6109 45.7314 42.3809 42.7588 42.3809H14.4473C9.06431 42.3809 5.4641 36.8397 7.65133 31.9212L18.4005 7.749C19.5946 5.06383 22.2577 3.3335 25.1964 3.3335H53.1462C58.4889 3.3335 62.0889 8.79892 59.9796 13.7076L49.5922 37.8797Z" fill="#BBF7FF"/>
<path d="M35.5208 20.8543C35.5208 12.5731 28.8021 5.8543 20.5208 5.8543C12.2396 5.8543 5.52081 12.5731 5.52081 20.8543C5.52081 29.1356 12.2396 35.8543 20.5208 35.8543C28.8021 35.8543 35.5208 29.1356 35.5208 20.8543Z" stroke="#0C0B60" stroke-width="2.42014" stroke-miterlimit="10"/>
<path d="M20.8303 28.5793C19.7803 28.5793 18.8128 28.4068 17.9278 28.0618C17.0578 27.7018 16.2703 27.1093 15.5653 26.2843L18.2878 24.2593C18.6328 24.7843 19.0153 25.1593 19.4353 25.3843C19.8703 25.6093 20.3278 25.7218 20.8078 25.7218C21.4828 25.7218 22.0453 25.5418 22.4953 25.1818C22.9453 24.8068 23.1703 24.2818 23.1703 23.6068C23.1703 22.9318 22.9153 22.3918 22.4053 21.9868C21.8953 21.5818 21.2353 21.3793 20.4253 21.3793H18.7153V18.4993H20.4253C21.3103 18.4993 21.9553 18.2818 22.3603 17.8468C22.7653 17.4118 22.9678 16.9093 22.9678 16.3393C22.9678 15.7693 22.7578 15.3118 22.3378 14.9668C21.9328 14.6068 21.3928 14.4268 20.7178 14.4268C20.0878 14.4268 19.5853 14.5693 19.2103 14.8543C18.8353 15.1243 18.5203 15.4993 18.2653 15.9793L15.6103 14.6068C16.0903 13.6918 16.7803 12.9793 17.6803 12.4693C18.5953 11.9593 19.5928 11.7043 20.6728 11.7043C21.4678 11.7043 22.1953 11.8168 22.8553 12.0418C23.5153 12.2518 24.0778 12.5593 24.5428 12.9643C25.0078 13.3543 25.3678 13.8343 25.6228 14.4043C25.8778 14.9743 26.0053 15.6118 26.0053 16.3168C26.0053 17.0668 25.8403 17.7418 25.5103 18.3418C25.1803 18.9268 24.7303 19.4293 24.1603 19.8493C24.8203 20.2393 25.3378 20.7493 25.7128 21.3793C26.1028 22.0093 26.2978 22.7518 26.2978 23.6068C26.2978 24.3118 26.1778 24.9718 25.9378 25.5868C25.6978 26.1868 25.3453 26.7118 24.8803 27.1618C24.4303 27.5968 23.8603 27.9418 23.1703 28.1968C22.4953 28.4518 21.7153 28.5793 20.8303 28.5793Z" fill="#0C0B60"/>
</svg>
