<svg width="65" height="43" viewBox="0 0 65 43" fill="none" xmlns="http://www.w3.org/2000/svg">
<path d="M49.5922 37.8797C48.4185 40.6109 45.7314 42.3809 42.7588 42.3809H14.4473C9.06431 42.3809 5.4641 36.8397 7.65133 31.9212L18.4005 7.749C19.5946 5.06383 22.2577 3.3335 25.1964 3.3335H53.1462C58.4889 3.3335 62.0889 8.79892 59.9796 13.7076L49.5922 37.8797Z" fill="#BBF7FF"/>
<path d="M35.5208 20.8543C35.5208 12.573 28.8021 5.85429 20.5208 5.85429C12.2396 5.85429 5.52081 12.573 5.52081 20.8543C5.52081 29.1355 12.2396 35.8543 20.5208 35.8543C28.8021 35.8543 35.5208 29.1355 35.5208 20.8543Z" stroke="#0C0B60" stroke-width="2.42014" stroke-miterlimit="10"/>
<path d="M15.2988 25.4068C15.2988 24.7018 15.4263 24.0643 15.6813 23.4943C15.9363 22.9243 16.2663 22.4068 16.6713 21.9418C17.0913 21.4618 17.5563 21.0268 18.0663 20.6368C18.5763 20.2468 19.0863 19.8793 19.5963 19.5343C20.0013 19.2643 20.3838 19.0018 20.7438 18.7468C21.1188 18.4918 21.4413 18.2368 21.7113 17.9818C21.9963 17.7118 22.2213 17.4418 22.3863 17.1718C22.5663 16.9018 22.6563 16.6093 22.6563 16.2943C22.6563 15.7693 22.4688 15.3268 22.0938 14.9668C21.7338 14.5918 21.1938 14.4043 20.4738 14.4043C19.7688 14.4043 19.1838 14.6218 18.7188 15.0568C18.2688 15.4768 17.9088 16.0318 17.6388 16.7218L14.9388 15.3718C15.4488 14.2468 16.1613 13.3543 17.0763 12.6943C18.0063 12.0343 19.1463 11.7043 20.4963 11.7043C21.3363 11.7043 22.0863 11.8243 22.7463 12.0643C23.4063 12.3043 23.9613 12.6343 24.4113 13.0543C24.8763 13.4593 25.2288 13.9468 25.4688 14.5168C25.7088 15.0718 25.8288 15.6718 25.8288 16.3168C25.8288 16.9768 25.7088 17.5618 25.4688 18.0718C25.2288 18.5818 24.9138 19.0543 24.5238 19.4893C24.1338 19.9093 23.6988 20.2993 23.2188 20.6593C22.7388 21.0043 22.2513 21.3418 21.7563 21.6718C21.3363 21.9568 20.9238 22.2418 20.5188 22.5268C20.1288 22.7968 19.7763 23.0818 19.4613 23.3818C19.1613 23.6668 18.9138 23.9743 18.7188 24.3043C18.5238 24.6343 18.4263 24.9868 18.4263 25.3618H25.7388V28.3543H15.2988V25.4068Z" fill="#0C0B60"/>
</svg>
