<svg
  width="40"
  height="40"
  viewBox="0 0 40 40"
  fill="none"
  xmlns="http://www.w3.org/2000/svg"
>
<path
    d="M13.75 32.4995V37.4995"
    stroke="orange"
    stroke-width="3"
    stroke-linecap="round"
    stroke-linejoin="round"
  />
<path
    d="M6.25 2.49951H21.25C21.913 2.49951 22.5489 2.7629 23.0178 3.23174C23.4866 3.70059 23.75 4.33647 23.75 4.99951V37.187C23.75 37.2699 23.7171 37.3494 23.6585 37.408C23.5999 37.4666 23.5204 37.4995 23.4375 37.4995H3.75V4.99951C3.75 4.33647 4.01339 3.70059 4.48223 3.23174C4.95107 2.7629 5.58696 2.49951 6.25 2.49951V2.49951Z"
    stroke="orange"
    stroke-width="3"
    stroke-linecap="round"
    stroke-linejoin="round"
  />
<path
    d="M25 14.9995H33.75C34.413 14.9995 35.0489 15.2629 35.5178 15.7317C35.9866 16.2006 36.25 16.8365 36.25 17.4995V37.4995H23.75V16.2495C23.75 15.918 23.8817 15.6 24.1161 15.3656C24.3505 15.1312 24.6685 14.9995 25 14.9995Z"
    stroke="orange"
    stroke-width="2"
    stroke-linecap="round"
    stroke-linejoin="round"
  />
<path
    d="M7.66235 33.7393C7.40346 33.7732 7.14047 33.7251 6.91029 33.6019C6.68011 33.4787 6.4943 33.2865 6.37892 33.0523C6.26354 32.8181 6.2244 32.5536 6.26698 32.296C6.30957 32.0384 6.43174 31.8006 6.61636 31.616C6.80098 31.4314 7.03877 31.3092 7.29636 31.2666C7.55396 31.224 7.81842 31.2632 8.05263 31.3786C8.28684 31.4939 8.47905 31.6797 8.60227 31.9099C8.72549 32.1401 8.77355 32.4031 8.73969 32.662C8.70396 32.9352 8.57896 33.1889 8.38413 33.3838C8.1893 33.5786 7.93555 33.7036 7.66235 33.7393Z"
    fill="orange"
  />
<path
    d="M7.66235 27.4893C7.40346 27.5232 7.14047 27.4751 6.91029 27.3519C6.68011 27.2287 6.4943 27.0365 6.37892 26.8023C6.26354 26.5681 6.2244 26.3036 6.26698 26.046C6.30957 25.7884 6.43174 25.5506 6.61636 25.366C6.80098 25.1814 7.03877 25.0592 7.29636 25.0166C7.55396 24.974 7.81842 25.0132 8.05263 25.1286C8.28684 25.2439 8.47905 25.4297 8.60227 25.6599C8.72549 25.8901 8.77355 26.1531 8.73969 26.412C8.70396 26.6852 8.57896 26.9389 8.38413 27.1338C8.1893 27.3286 7.93555 27.4536 7.66235 27.4893Z"
    fill="orange"
  />
<path
    d="M7.66235 21.2393C7.40346 21.2732 7.14047 21.2251 6.91029 21.1019C6.68011 20.9787 6.4943 20.7865 6.37892 20.5523C6.26354 20.3181 6.2244 20.0536 6.26698 19.796C6.30957 19.5384 6.43174 19.3006 6.61636 19.116C6.80098 18.9314 7.03877 18.8092 7.29636 18.7666C7.55396 18.724 7.81842 18.7632 8.05263 18.8786C8.28684 18.9939 8.47905 19.1797 8.60227 19.4099C8.72549 19.6401 8.77355 19.9031 8.73969 20.162C8.70396 20.4352 8.57896 20.6889 8.38413 20.8838C8.1893 21.0786 7.93555 21.2036 7.66235 21.2393Z"
    fill="orange"
  />
<path
    d="M7.66235 14.9893C7.40346 15.0232 7.14047 14.9751 6.91029 14.8519C6.68011 14.7287 6.4943 14.5365 6.37892 14.3023C6.26354 14.068 6.2244 13.8036 6.26698 13.546C6.30957 13.2884 6.43174 13.0506 6.61636 12.866C6.80098 12.6814 7.03877 12.5592 7.29636 12.5166C7.55396 12.474 7.81842 12.5132 8.05263 12.6286C8.28684 12.7439 8.47905 12.9297 8.60227 13.1599C8.72549 13.3901 8.77355 13.6531 8.73969 13.912C8.70396 14.1852 8.57896 14.4389 8.38413 14.6338C8.1893 14.8286 7.93555 14.9536 7.66235 14.9893Z"
    fill="orange"
  />
<path
    d="M7.66235 8.73932C7.40346 8.77318 7.14047 8.72513 6.91029 8.6019C6.68011 8.47868 6.4943 8.28647 6.37892 8.05226C6.26354 7.81805 6.2244 7.55359 6.26698 7.296C6.30957 7.03841 6.43174 6.80061 6.61636 6.616C6.80098 6.43138 7.03877 6.3092 7.29636 6.26662C7.55396 6.22403 7.81842 6.26318 8.05263 6.37855C8.28684 6.49393 8.47905 6.67975 8.60227 6.90993C8.72549 7.14011 8.77355 7.4031 8.73969 7.66198C8.70396 7.93519 8.57896 8.18893 8.38413 8.38376C8.1893 8.57859 7.93555 8.70359 7.66235 8.73932Z"
    fill="orange"
  />
<path
    d="M13.9123 27.4893C13.6535 27.5232 13.3905 27.4751 13.1603 27.3519C12.9301 27.2287 12.7443 27.0365 12.6289 26.8023C12.5135 26.5681 12.4744 26.3036 12.517 26.046C12.5596 25.7884 12.6817 25.5506 12.8664 25.366C13.051 25.1814 13.2888 25.0592 13.5464 25.0166C13.804 24.974 14.0684 25.0132 14.3026 25.1286C14.5368 25.2439 14.729 25.4297 14.8523 25.6599C14.9755 25.8901 15.0235 26.1531 14.9897 26.412C14.954 26.6852 14.829 26.9389 14.6341 27.1338C14.4393 27.3286 14.1856 27.4536 13.9123 27.4893Z"
    fill="orange"
  />
<path
    d="M13.9123 21.2393C13.6535 21.2732 13.3905 21.2251 13.1603 21.1019C12.9301 20.9787 12.7443 20.7865 12.6289 20.5523C12.5135 20.3181 12.4744 20.0536 12.517 19.796C12.5596 19.5384 12.6817 19.3006 12.8664 19.116C13.051 18.9314 13.2888 18.8092 13.5464 18.7666C13.804 18.724 14.0684 18.7632 14.3026 18.8786C14.5368 18.9939 14.729 19.1797 14.8523 19.4099C14.9755 19.6401 15.0235 19.9031 14.9897 20.162C14.954 20.4352 14.829 20.6889 14.6341 20.8838C14.4393 21.0786 14.1856 21.2036 13.9123 21.2393Z"
    fill="orange"
  />
<path
    d="M13.9123 14.9893C13.6535 15.0232 13.3905 14.9751 13.1603 14.8519C12.9301 14.7287 12.7443 14.5365 12.6289 14.3023C12.5135 14.068 12.4744 13.8036 12.517 13.546C12.5596 13.2884 12.6817 13.0506 12.8664 12.866C13.051 12.6814 13.2888 12.5592 13.5464 12.5166C13.804 12.474 14.0684 12.5132 14.3026 12.6286C14.5368 12.7439 14.729 12.9297 14.8523 13.1599C14.9755 13.3901 15.0235 13.6531 14.9897 13.912C14.954 14.1852 14.829 14.4389 14.6341 14.6338C14.4393 14.8286 14.1856 14.9536 13.9123 14.9893Z"
    fill="orange"
  />
<path
    d="M13.9123 8.73932C13.6535 8.77318 13.3905 8.72513 13.1603 8.6019C12.9301 8.47868 12.7443 8.28647 12.6289 8.05226C12.5135 7.81805 12.4744 7.55359 12.517 7.296C12.5596 7.03841 12.6817 6.80061 12.8664 6.616C13.051 6.43138 13.2888 6.3092 13.5464 6.26662C13.804 6.22403 14.0684 6.26318 14.3026 6.37855C14.5368 6.49393 14.729 6.67975 14.8523 6.90993C14.9755 7.14011 15.0235 7.4031 14.9897 7.66198C14.954 7.93519 14.829 8.18893 14.6341 8.38376C14.4393 8.57859 14.1856 8.70359 13.9123 8.73932Z"
    fill="orange"
  />
<path
    d="M20.1623 33.7393C19.9035 33.7732 19.6405 33.7251 19.4103 33.6019C19.1801 33.4787 18.9943 33.2865 18.8789 33.0523C18.7635 32.8181 18.7244 32.5536 18.767 32.296C18.8096 32.0384 18.9317 31.8006 19.1164 31.616C19.301 31.4314 19.5388 31.3092 19.7964 31.2666C20.054 31.224 20.3184 31.2632 20.5526 31.3786C20.7868 31.4939 20.979 31.6797 21.1023 31.9099C21.2255 32.1401 21.2735 32.4031 21.2397 32.662C21.204 32.9352 21.079 33.1889 20.8841 33.3838C20.6893 33.5786 20.4356 33.7036 20.1623 33.7393Z"
    fill="orange"
  />
<path
    d="M20.1623 27.4893C19.9035 27.5232 19.6405 27.4751 19.4103 27.3519C19.1801 27.2287 18.9943 27.0365 18.8789 26.8023C18.7635 26.5681 18.7244 26.3036 18.767 26.046C18.8096 25.7884 18.9317 25.5506 19.1164 25.366C19.301 25.1814 19.5388 25.0592 19.7964 25.0166C20.054 24.974 20.3184 25.0132 20.5526 25.1286C20.7868 25.2439 20.979 25.4297 21.1023 25.6599C21.2255 25.8901 21.2735 26.1531 21.2397 26.412C21.204 26.6852 21.079 26.9389 20.8841 27.1338C20.6893 27.3286 20.4356 27.4536 20.1623 27.4893Z"
    fill="orange"
  />
<path
    d="M20.1623 21.2393C19.9035 21.2732 19.6405 21.2251 19.4103 21.1019C19.1801 20.9787 18.9943 20.7865 18.8789 20.5523C18.7635 20.3181 18.7244 20.0536 18.767 19.796C18.8096 19.5384 18.9317 19.3006 19.1164 19.116C19.301 18.9314 19.5388 18.8092 19.7964 18.7666C20.054 18.724 20.3184 18.7632 20.5526 18.8786C20.7868 18.9939 20.979 19.1797 21.1023 19.4099C21.2255 19.6401 21.2735 19.9031 21.2397 20.162C21.204 20.4352 21.079 20.6889 20.8841 20.8838C20.6893 21.0786 20.4356 21.2036 20.1623 21.2393Z"
    fill="orange"
  />
<path
    d="M20.8856 14.6343C21.3722 14.1477 21.3703 13.3568 20.8812 12.8677C20.3921 12.3786 19.6011 12.3766 19.1145 12.8633C18.6279 13.3499 18.6299 14.1409 19.1189 14.6299C19.608 15.119 20.399 15.121 20.8856 14.6343Z"
    fill="orange"
  />
<path
    d="M20.1623 8.73932C19.9035 8.77318 19.6405 8.72513 19.4103 8.6019C19.1801 8.47868 18.9943 8.28647 18.8789 8.05226C18.7635 7.81805 18.7244 7.55359 18.767 7.296C18.8096 7.03841 18.9317 6.80061 19.1164 6.616C19.301 6.43138 19.5388 6.3092 19.7964 6.26662C20.054 6.22403 20.3184 6.26318 20.5526 6.37855C20.7868 6.49393 20.979 6.67975 21.1023 6.90993C21.2255 7.14011 21.2735 7.4031 21.2397 7.66198C21.204 7.93519 21.079 8.18893 20.8841 8.38376C20.6893 8.57859 20.4356 8.70359 20.1623 8.73932Z"
    fill="orange"
  />
<path
    d="M31.25 31.2495C31.0028 31.2495 30.7611 31.3228 30.5555 31.4602C30.35 31.5975 30.1898 31.7928 30.0952 32.0212C30.0005 32.2496 29.9758 32.5009 30.024 32.7434C30.0723 32.9859 30.1913 33.2086 30.3661 33.3834C30.5409 33.5582 30.7637 33.6773 31.0061 33.7255C31.2486 33.7737 31.4999 33.749 31.7284 33.6544C31.9568 33.5598 32.152 33.3995 32.2893 33.194C32.4267 32.9884 32.5 32.7467 32.5 32.4995C32.5 32.168 32.3683 31.85 32.1339 31.6156C31.8995 31.3812 31.5815 31.2495 31.25 31.2495Z"
    fill="orange"
  />
<path
    d="M31.25 24.9995C31.0028 24.9995 30.7611 25.0728 30.5555 25.2102C30.35 25.3475 30.1898 25.5428 30.0952 25.7712C30.0005 25.9996 29.9758 26.2509 30.024 26.4934C30.0723 26.7359 30.1913 26.9586 30.3661 27.1334C30.5409 27.3082 30.7637 27.4273 31.0061 27.4755C31.2486 27.5237 31.4999 27.499 31.7284 27.4044C31.9568 27.3098 32.152 27.1495 32.2893 26.944C32.4267 26.7384 32.5 26.4967 32.5 26.2495C32.5 25.918 32.3683 25.6 32.1339 25.3656C31.8995 25.1312 31.5815 24.9995 31.25 24.9995Z"
    fill="orange"
  />
<path
    d="M31.25 18.7495C31.0028 18.7495 30.7611 18.8228 30.5555 18.9602C30.35 19.0975 30.1898 19.2927 30.0952 19.5212C30.0005 19.7496 29.9758 20.0009 30.024 20.2434C30.0723 20.4859 30.1913 20.7086 30.3661 20.8834C30.5409 21.0582 30.7637 21.1773 31.0061 21.2255C31.2486 21.2737 31.4999 21.249 31.7284 21.1544C31.9568 21.0598 32.152 20.8995 32.2893 20.694C32.4267 20.4884 32.5 20.2467 32.5 19.9995C32.5 19.668 32.3683 19.35 32.1339 19.1156C31.8995 18.8812 31.5815 18.7495 31.25 18.7495Z"
    fill="orange"
  />
<path
    d="M26.25 31.2495C26.0028 31.2495 25.7611 31.3228 25.5555 31.4602C25.35 31.5975 25.1898 31.7928 25.0952 32.0212C25.0005 32.2496 24.9758 32.5009 25.024 32.7434C25.0723 32.9859 25.1913 33.2086 25.3661 33.3834C25.5409 33.5582 25.7637 33.6773 26.0061 33.7255C26.2486 33.7737 26.4999 33.749 26.7284 33.6544C26.9568 33.5598 27.152 33.3995 27.2893 33.194C27.4267 32.9884 27.5 32.7467 27.5 32.4995C27.5 32.168 27.3683 31.85 27.1339 31.6156C26.8995 31.3812 26.5815 31.2495 26.25 31.2495Z"
    fill="orange"
  />
<path
    d="M26.25 24.9995C26.0028 24.9995 25.7611 25.0728 25.5555 25.2102C25.35 25.3475 25.1898 25.5428 25.0952 25.7712C25.0005 25.9996 24.9758 26.2509 25.024 26.4934C25.0723 26.7359 25.1913 26.9586 25.3661 27.1334C25.5409 27.3082 25.7637 27.4273 26.0061 27.4755C26.2486 27.5237 26.4999 27.499 26.7284 27.4044C26.9568 27.3098 27.152 27.1495 27.2893 26.944C27.4267 26.7384 27.5 26.4967 27.5 26.2495C27.5 25.918 27.3683 25.6 27.1339 25.3656C26.8995 25.1312 26.5815 24.9995 26.25 24.9995Z"
    fill="orange"
  />
<path
    d="M26.25 18.7495C26.0028 18.7495 25.7611 18.8228 25.5555 18.9602C25.35 19.0975 25.1898 19.2927 25.0952 19.5212C25.0005 19.7496 24.9758 20.0009 25.024 20.2434C25.0723 20.4859 25.1913 20.7086 25.3661 20.8834C25.5409 21.0582 25.7637 21.1773 26.0061 21.2255C26.2486 21.2737 26.4999 21.249 26.7284 21.1544C26.9568 21.0598 27.152 20.8995 27.2893 20.694C27.4267 20.4884 27.5 20.2467 27.5 19.9995C27.5 19.668 27.3683 19.35 27.1339 19.1156C26.8995 18.8812 26.5815 18.7495 26.25 18.7495Z"
    fill="orange"
  />
</svg>
