<svg
  width="40"
  height="40"
  viewBox="0 0 40 40"
  fill="none"
  xmlns="http://www.w3.org/2000/svg"
>
<g clip-path="url(#clip0_4513_691)">
<path
      d="M34.1149 14.3831C33.7172 14.7782 33.1794 15 32.6188 15C32.0582 15 31.5204 14.7782 31.1227 14.3831L29.3664 12.6261C28.9712 12.2287 28.7493 11.6909 28.7493 11.1304C28.7493 10.5699 28.9712 10.0321 29.3664 9.63469L33.3422 5.65891C33.3499 5.65127 33.3555 5.64187 33.3587 5.63154C33.3619 5.62121 33.3625 5.61026 33.3605 5.59964C33.3585 5.58901 33.354 5.57904 33.3472 5.57058C33.3405 5.56212 33.3318 5.55543 33.3219 5.5511C30.7563 4.45266 27.4289 5.01125 25.3164 7.10891C23.2946 9.11594 23.1797 12.13 23.9203 14.7652C24.0256 15.1395 24.0253 15.5356 23.9196 15.9098C23.8138 16.2839 23.6067 16.6216 23.3211 16.8855L9.80549 29.4448C9.4829 29.7337 9.22261 30.0853 9.04054 30.4782C8.85846 30.8711 8.75843 31.297 8.74656 31.7298C8.73468 32.1627 8.81122 32.5934 8.97148 32.9957C9.13174 33.398 9.37236 33.7633 9.67863 34.0694C9.9849 34.3755 10.3504 34.616 10.7527 34.776C11.1551 34.9361 11.5859 35.0124 12.0187 35.0003C12.4516 34.9882 12.8774 34.8879 13.2702 34.7057C13.663 34.5234 14.0145 34.2629 14.3031 33.9402L26.9711 20.4011C27.2321 20.1202 27.5648 19.9158 27.9333 19.8098C28.3017 19.7038 28.6922 19.7003 29.0625 19.7995C31.6766 20.498 34.6477 20.3667 36.6461 18.398C38.7938 16.2823 39.2571 12.5433 38.2164 10.4034C38.2117 10.3941 38.2048 10.3859 38.1964 10.3797C38.1879 10.3735 38.1781 10.3694 38.1677 10.3677C38.1573 10.366 38.1467 10.3668 38.1367 10.3701C38.1267 10.3733 38.1176 10.3788 38.1102 10.3863L34.1149 14.3831Z"
      stroke="orange"
      stroke-width="3"
      stroke-miterlimit="10"
      stroke-linecap="round"
    />
<path
      d="M17.5 22.187C16.1344 20.8588 15.5086 20.2409 15.0781 19.8206C14.8627 19.6065 14.7213 19.3293 14.6745 19.0293C14.6277 18.7292 14.678 18.4221 14.818 18.1526C14.8918 18.0201 14.9839 17.8986 15.0914 17.7917L16.3164 16.5971C16.4432 16.4701 16.5923 16.3676 16.7563 16.2948C17.0151 16.1802 17.3024 16.1459 17.5809 16.1963C17.8595 16.2467 18.1165 16.3796 18.3188 16.5776C18.7446 16.9909 19.5242 17.7495 20.9289 19.1182"
      stroke="orange"
      stroke-width="3"
      stroke-linecap="round"
      stroke-linejoin="round"
    />
<path
      d="M24.771 22.7573C27.9702 25.7339 31.8507 29.2628 33.3647 30.5237C33.478 30.6171 33.5704 30.7331 33.6361 30.8643C33.7018 30.9955 33.7394 31.139 33.7463 31.2856C33.7532 31.4322 33.7294 31.5786 33.6763 31.7154C33.6232 31.8522 33.5421 31.9764 33.4382 32.08L30.8304 34.687C30.7242 34.7907 30.5981 34.8717 30.4597 34.9252C30.3212 34.9786 30.1733 35.0032 30.025 34.9977C29.8768 34.9921 29.7311 34.9565 29.5971 34.8928C29.463 34.8292 29.3433 34.739 29.2452 34.6276C27.9538 33.1292 24.4726 29.3847 21.4897 26.2683"
      stroke="orange"
      stroke-width="2.5"
      stroke-linecap="round"
      stroke-linejoin="round"
    />
<path
      d="M1.35476 15.1167L3.65242 12.8714C3.68751 12.8369 3.72917 12.8098 3.77493 12.7917C3.82069 12.7735 3.86962 12.7648 3.91882 12.7659C4.01801 12.7649 4.11366 12.8027 4.18523 12.8714V12.8714C4.26844 12.9537 4.3693 13.016 4.48017 13.0535C4.59104 13.091 4.70899 13.1027 4.82507 13.0878C5.12429 13.055 5.44382 12.9628 5.65086 12.7659C6.11961 12.3128 5.57742 11.4198 5.98992 10.8487C6.46159 10.2236 6.97805 9.63346 7.53523 9.08311C8.00398 8.62373 9.86648 6.87061 12.9962 5.61045C13.997 5.2059 15.0666 4.99845 16.1462 4.99952C17.911 4.99952 19.2712 5.78077 19.7602 6.22373C20.0538 6.50303 20.3225 6.8073 20.5634 7.13311C20.3281 7.04641 20.0878 6.97414 19.8438 6.9167C19.3306 6.80783 18.8042 6.77467 18.2813 6.81827C17.2399 6.90342 15.9837 7.38545 15.3126 7.91202C14.2266 8.77139 13.7602 9.92139 13.6868 11.405C13.6337 12.5081 13.8993 13.1315 16.5071 15.7401C16.5962 15.8396 16.6433 15.9698 16.6383 16.1033C16.6334 16.2368 16.5768 16.3632 16.4805 16.4558L15.0571 17.862C14.9579 17.9593 14.8248 18.0144 14.6859 18.0157C14.5469 18.017 14.4128 17.9644 14.3118 17.869C12.5977 16.155 11.4485 15.2839 10.7962 14.8878C10.1438 14.4917 9.61882 14.38 9.36648 14.3526C8.87089 14.3035 8.37225 14.4092 7.93914 14.655C7.86314 14.6967 7.79366 14.7494 7.73289 14.8112C7.63145 14.9161 7.55179 15.04 7.49849 15.1758C7.4452 15.3116 7.41933 15.4566 7.42238 15.6024C7.42543 15.7483 7.45734 15.8921 7.51627 16.0256C7.57519 16.159 7.65997 16.2795 7.7657 16.38L7.89929 16.505C7.93397 16.5387 7.96154 16.579 7.98037 16.6236C7.99919 16.6681 8.00889 16.716 8.00889 16.7644C8.00889 16.8127 7.99919 16.8606 7.98037 16.9051C7.96154 16.9497 7.93397 16.99 7.89929 17.0237L5.60398 19.2651C5.56921 19.3003 5.5277 19.3282 5.48192 19.347C5.43615 19.3658 5.38705 19.3751 5.33757 19.3745C5.23841 19.3755 5.14279 19.3376 5.07117 19.269L1.35476 15.6417C1.2875 15.5709 1.25 15.4769 1.25 15.3792C1.25 15.2815 1.2875 15.1875 1.35476 15.1167V15.1167Z"
      stroke="orange"
      stroke-width="2.5"
      stroke-linecap="round"
      stroke-linejoin="round"
    />
</g>
<defs>
<clipPath id="clip0_4513_691">
<rect
        width="40"
        height="40"
        fill="white"
        transform="translate(0 -0.000488281)"
      />
</clipPath>
</defs>
</svg>
