<svg
  width="40"
  height="40"
  viewBox="0 0 40 40"
  fill="none"
  xmlns="http://www.w3.org/2000/svg"
>
<path
    d="M36.25 19.9995C36.25 11.0253 28.9742 3.74951 20 3.74951C11.0258 3.74951 3.75 11.0253 3.75 19.9995C3.75 28.9737 11.0258 36.2495 20 36.2495C28.9742 36.2495 36.25 28.9737 36.25 19.9995Z"
    stroke="orange"
    stroke-width="3"
    stroke-miterlimit="10"
  />
<path
    d="M34.8102 13.4479C33.5555 13.4557 33.6789 15.7706 32.1156 14.6784C31.5352 14.2737 31.1781 13.6854 30.4492 13.5065C29.8125 13.3503 29.1602 13.5128 28.5313 13.6214C27.8164 13.7448 26.9688 13.8003 26.4266 14.3417C25.9024 14.8628 25.625 15.562 25.0672 16.0862C23.9883 17.1018 23.5328 18.2104 24.2313 19.6464C24.9031 21.0268 26.3086 21.7761 27.825 21.6776C29.3149 21.5784 30.8625 20.7143 30.8195 22.8792C30.8039 23.6448 30.9641 24.1761 31.1992 24.8878C31.4172 25.544 31.4024 26.18 31.4524 26.8573C31.5445 28.1229 31.7774 29.5417 32.4055 30.6597L33.5774 29.0065C33.7219 28.8018 34.0242 28.5151 34.0961 28.2737C34.2234 27.8464 33.9727 27.112 33.9438 26.6331C33.9149 26.1542 33.9289 25.669 33.8555 25.1901C33.7524 24.519 33.3555 23.8901 33.3008 23.2268C33.2 21.9917 33.4258 21.0057 32.4742 19.9729C31.5555 18.9768 30.2086 18.7378 28.9219 18.9401C28.2735 19.0417 25.6633 19.4589 26.7109 17.9768C26.918 17.6854 27.2797 17.4464 27.5125 17.169C27.7149 16.9276 27.8906 16.4839 28.1281 16.2956C28.3656 16.1073 29.4563 15.8909 29.7688 15.987C30.0813 16.0831 30.407 16.5339 30.6781 16.7339C31.179 17.1111 31.7635 17.362 32.382 17.4651C33.4492 17.6214 35.6805 17.0011 35.6633 15.6323C35.6602 14.9761 35.0508 14.062 34.8102 13.4479Z"
    fill="orange"
  />
<path
    d="M22.457 24.7105C22.0406 22.9574 19.6586 22.3714 18.3742 21.4207C17.6359 20.8738 16.9789 20.0292 16.0093 19.9605C15.5625 19.9285 15.1882 20.0253 14.7453 19.9105C14.339 19.8058 14.0203 19.5871 13.5875 19.6441C12.7789 19.7503 12.2687 20.6144 11.4 20.4972C10.5757 20.3863 9.72652 19.4222 9.53902 18.6371C9.2984 17.6277 10.0968 17.3003 10.9523 17.2105C11.3093 17.173 11.7101 17.1324 12.0531 17.2628C12.5046 17.4308 12.7179 17.873 13.1234 18.0964C13.8836 18.5128 14.0375 17.8472 13.9211 17.1722C13.7468 16.1613 13.5437 15.7488 14.4453 15.0535C15.0703 14.5738 15.6046 14.2269 15.5046 13.3652C15.4453 12.8589 15.1679 12.63 15.4265 12.1261C15.6226 11.7425 16.1609 11.3964 16.5117 11.1675C17.4171 10.5769 20.3906 10.6207 19.1757 8.96753C18.8187 8.48237 18.1601 7.61519 17.5351 7.49644C16.7539 7.34878 16.407 8.22065 15.8625 8.60503C15.3 9.00269 14.2046 9.45425 13.6414 8.8394C12.8836 8.01206 14.1437 7.74019 14.4226 7.16284C14.7015 6.5855 13.7765 5.49409 13.2812 5.21753L10.9523 7.82925C10.8854 8.26664 10.9087 8.71309 11.0207 9.14114C11.1328 9.5692 11.3312 9.9698 11.6039 10.3183C12.0671 10.9144 12.8046 11.1058 12.8382 11.9199C12.8711 12.7011 12.7492 13.1011 12.2382 13.6503C12.0171 13.8847 11.8609 14.2175 11.6359 14.4371C11.3601 14.705 11.4625 14.623 11.032 14.6964C10.2226 14.8332 9.53355 15.0441 8.75152 15.2597C7.4484 15.6199 7.32808 13.491 6.73433 12.6558L4.78121 14.2332C4.76012 14.4917 5.10152 14.9675 5.19449 15.2488C5.72808 16.8558 6.80465 18.0988 7.49996 19.6363C8.23199 21.2644 10.1976 20.8128 11.0656 22.2394C11.8359 23.505 11.0132 25.1074 11.5898 26.4324C12.0086 27.3941 12.9961 27.6042 13.6773 28.3074C14.3734 29.0175 14.3586 29.9894 14.4648 30.9136C14.5846 32.0007 14.7791 33.0782 15.0468 34.1386C15.1414 34.505 15.2281 34.9894 15.4789 35.2917C15.6507 35.4996 16.2406 35.6785 16.0023 35.7472C16.3351 35.8019 16.9281 36.1128 17.2054 35.8847C17.5711 35.5847 17.4734 34.6613 17.5367 34.2441C17.7265 33.0019 18.3484 31.7871 19.1875 30.8574C20.0164 29.9402 21.1523 29.3191 21.8523 28.2792C22.5343 27.2652 22.7398 25.8972 22.457 24.7105ZM19.8484 26.7667C19.3796 27.6035 18.3359 28.1636 17.6648 28.8285C17.4828 29.0089 17.0953 29.6339 16.8671 29.4988C16.7039 29.4019 16.6484 28.591 16.5882 28.405C16.2779 27.4687 15.6854 26.6514 14.8921 26.0652C14.6476 25.88 14.0414 25.6394 13.9015 25.3855C13.7453 25.1097 13.8859 24.4589 13.8914 24.1589C13.9 23.7214 13.7007 22.9941 13.8086 22.5964C13.9336 22.1378 13.6929 22.4144 14.1031 22.3238C14.3195 22.2753 15.2132 22.4324 15.4828 22.4886C15.9109 22.5777 16.1468 22.8441 16.4843 23.1136C17.3718 23.8253 18.3492 24.3761 19.3437 24.9214C20.114 25.348 20.3406 25.8878 19.8484 26.7667Z"
    fill="orange"
  />
<path
    d="M14.4109 5.24095C14.7812 5.60267 15.1296 6.0308 15.682 6.06673C16.2046 6.10189 16.6976 5.81908 17.1539 6.17455C17.6601 6.56517 18.025 7.0597 18.6968 7.18158C19.3468 7.29955 20.0351 6.91986 20.196 6.25502C20.3523 5.62142 20.0156 4.93236 19.9953 4.29642C19.9953 4.20814 20.0429 3.81595 19.982 3.74955C19.9367 3.69955 19.5585 3.7558 19.5007 3.75736C19.0773 3.76986 18.6549 3.79903 18.2335 3.84486C16.6975 4.01112 15.1931 4.39654 13.7664 4.98939C13.9562 5.12064 14.1945 5.17298 14.4109 5.24095Z"
    fill="orange"
  />
<path
    d="M27.8437 9.63002C28.507 9.63002 29.1805 9.33315 28.9664 8.56596C28.7867 7.92299 28.4805 7.22534 27.7352 7.57221C27.2609 7.79252 26.5891 8.35346 26.5336 8.90971C26.4703 9.54096 27.4016 9.63002 27.8437 9.63002Z"
    fill="orange"
  />
<path
    d="M27.314 12.987C27.9914 13.3925 28.996 13.2018 29.507 12.6229C29.9062 12.1698 30.1414 11.3831 30.8593 11.3839C31.1754 11.3832 31.4791 11.507 31.7046 11.7284C32.0015 12.0354 31.9429 12.3237 32.0062 12.7081C32.1476 13.5714 33.0734 12.7573 33.3148 12.4229C33.471 12.205 33.6828 11.8815 33.6117 11.5979C33.546 11.3331 33.2367 11.051 33.0992 10.8081C32.6976 10.105 32.3671 9.28699 31.7656 8.71902C31.1867 8.17214 30.4749 8.23542 29.9257 8.80339C29.4757 9.27214 28.9531 9.64324 28.6453 10.2135C28.4281 10.6143 28.1835 10.8057 27.7437 10.9096C27.5015 10.9667 27.225 10.9878 27.0218 11.1503C26.4562 11.5956 26.7781 12.6651 27.314 12.987Z"
    fill="orange"
  />
</svg>
