<svg width="52" height="34" viewBox="0 0 52 34" fill="none" xmlns="http://www.w3.org/2000/svg">
<path d="M39.92 29.8689C38.9732 32.0721 36.8054 33.5 34.4074 33.5H11.5681C7.22566 33.5 4.32132 29.0299 6.08578 25.062L14.7573 5.56204C15.7205 3.39588 17.8689 2 20.2396 2H42.787C47.097 2 50.0013 6.40902 48.2996 10.3689L39.92 29.8689Z" fill="#BBF7FF"/>
<path d="M23.3335 8H28.3335" stroke="#04034A" stroke-width="2.5" stroke-linecap="round" stroke-linejoin="round"/>
<path d="M4.3335 8H19.3335" stroke="#04034A" stroke-width="2.5" stroke-linecap="round" stroke-linejoin="round"/>
<path d="M23.3335 24H28.3335" stroke="#04034A" stroke-width="2.5" stroke-linecap="round" stroke-linejoin="round"/>
<path d="M4.3335 24H19.3335" stroke="#04034A" stroke-width="2.5" stroke-linecap="round" stroke-linejoin="round"/>
<path d="M13.3335 16H28.3335" stroke="#04034A" stroke-width="2.5" stroke-linecap="round" stroke-linejoin="round"/>
<path d="M4.3335 16H9.3335" stroke="#04034A" stroke-width="2.5" stroke-linecap="round" stroke-linejoin="round"/>
<path d="M21.3335 10C22.4381 10 23.3335 9.10457 23.3335 8C23.3335 6.89543 22.4381 6 21.3335 6C20.2289 6 19.3335 6.89543 19.3335 8C19.3335 9.10457 20.2289 10 21.3335 10Z" stroke="#04034A" stroke-width="2.5" stroke-linecap="round" stroke-linejoin="round"/>
<path d="M11.3335 18C12.4381 18 13.3335 17.1046 13.3335 16C13.3335 14.8954 12.4381 14 11.3335 14C10.2289 14 9.3335 14.8954 9.3335 16C9.3335 17.1046 10.2289 18 11.3335 18Z" stroke="#04034A" stroke-width="2.5" stroke-linecap="round" stroke-linejoin="round"/>
<path d="M21.3335 26C22.4381 26 23.3335 25.1046 23.3335 24C23.3335 22.8954 22.4381 22 21.3335 22C20.2289 22 19.3335 22.8954 19.3335 24C19.3335 25.1046 20.2289 26 21.3335 26Z" stroke="#04034A" stroke-width="2.5" stroke-linecap="round" stroke-linejoin="round"/>
</svg>
